<svg xmlns="http://www.w3.org/2000/svg" viewBox="0 0 33.77 45.13"><defs><style>.cls-1{fill:#ff003c}</style></defs><title>txt_entry</title><g id="レイヤー_2" data-name="レイヤー 2"><path class="cls-1" d="M3.13 37.47l-1 3.43 2.26.65.93-3.23 1.59.46L6 42l2.58.74 1-3.57 1.59.46-1.58 5.5L0 42.38 1.54 37zM10.88 32L4.6 29.28l.73-1.7 9.18 4-.91 2.11-7.4-.51 6.43 2.77-.73 1.7-9.18-4 .92-2.13zm.61-11.95l-1.11 1.88 7.18 4.26-1 1.73-7.21-4.25-1.12 1.88-1.42-.85 3.26-5.49zm2.68-6.45a2.81 2.81 0 0 1 1.71-1.16 2.49 2.49 0 0 1 2 .64 3 3 0 0 1 1.05 1.33 1.88 1.88 0 0 1-.13 1.5 1.83 1.83 0 0 1 1.07-.57 2.08 2.08 0 0 1 1.23.41l.51.34.6.43q.65.47 1 .68a.77.77 0 0 0 .68.06l.07.05L22.6 19a1.08 1.08 0 0 1-.5-.14 5.69 5.69 0 0 1-.48-.3l-1.55-1.13a1.57 1.57 0 0 0-.91-.33 1.08 1.08 0 0 0-.82.5l-.66.85L21 21.08l-1.24 1.59-7.89-6.13zm2.92 3.4a1.65 1.65 0 0 0 .42-1.09 1.47 1.47 0 0 0-.67-1 1.23 1.23 0 0 0-2 .25l-.58.75 2.28 1.77zm5.62-7.22L21 6l1.54-1.55L25 10.6l2.79 2.77-1.43 1.43-2.79-2.8-6.13-2.4L19 8zm3.69-4.99a3.71 3.71 0 0 1-.58-1 2.5 2.5 0 0 1-.16-1 2.37 2.37 0 0 1 .31-1 3.14 3.14 0 0 1 .82-.92A3 3 0 0 1 29 0a2.66 2.66 0 0 1 1.8 1.09 3.1 3.1 0 0 1 .53 1 3.79 3.79 0 0 1 .13 1.29v.84a3.25 3.25 0 0 0 0 .91 2 2 0 0 0 .41.78l.13.17-1.38 1.05-.34-.43a3.15 3.15 0 0 1-.58-1.05 3.57 3.57 0 0 1-.1-1.21v-.8a1.86 1.86 0 0 0-.11-.8 2.53 2.53 0 0 0-.4-.7 1.44 1.44 0 0 0-.72-.53.83.83 0 0 0-.76.18.8.8 0 0 0-.33.81 2.33 2.33 0 0 0 .51 1l.21.3L26.59 5zm7.38 3.38l-1.52 1.2-1.15-1.45 1.52-1.2z" id="btn_entry"/></g></svg>