<svg xmlns="http://www.w3.org/2000/svg" viewBox="0 0 87.88 87.87">  <defs>    <style>      .cls-1 {        fill: #323232;      }    </style>  </defs>  <title>img_handle_bl</title>  <g id="レイヤー_2" data-name="レイヤー 2">    <g id="recruit">      <path class="cls-1" d="M5.89,22a43.93,43.93,0,1,0,60-16.08A43.93,43.93,0,0,0,5.89,22Zm55.3-7.92a34.4,34.4,0,0,1,9.46,8L54.32,31.52A16.47,16.47,0,0,0,52,29.91a16.2,16.2,0,0,0-18.85,1.92L16.93,22.45A34.52,34.52,0,0,1,61.19,14.05ZM39,52.57a10,10,0,1,1,13.62-3.65A10,10,0,0,1,39,52.57ZM11.66,31.73,28,41.15A16.21,16.21,0,0,0,38.83,59.3V78.07A34.53,34.53,0,0,1,11.66,31.73ZM73.82,61.19A34.45,34.45,0,0,1,49.5,78V59.14A16.18,16.18,0,0,0,59.76,40.5l.09.15L76,31.3A34.44,34.44,0,0,1,73.82,61.19Z"/>    </g>  </g></svg>