<svg xmlns="http://www.w3.org/2000/svg" width="295.83" height="158.13" viewBox="0 0 295.83 158.13">  <title>img_company_voice_on</title>  <g id="レイヤー_2" data-name="レイヤー 2">    <g id="service-05">      <polygon points="286.83 150.13 12.84 158.13 10 155.3 2.83 2.83 293 7 295.83 9.84 286.83 150.13" style="fill: #989898"/>      <polygon points="284 147.3 10 155.3 0 0 293 7 284 147.3" style="fill: #b8d200"/>      <g>        <path d="M38.09,70.49a12.17,12.17,0,0,0-.7,1.44,33.28,33.28,0,0,1-2.82,5.66A47.92,47.92,0,0,1,39,81.84L37.11,83.9A29.73,29.73,0,0,0,33,79.68,22.9,22.9,0,0,1,29.92,83a25.38,25.38,0,0,1-4.76,3.3,6.2,6.2,0,0,0-1.76-2.08,20.37,20.37,0,0,0,5.18-3.46,20.42,20.42,0,0,0,2.54-2.72,35.82,35.82,0,0,0-5.3-3.6l1.76-1.76c1.46.86,2.32,1.42,3.3,2.12,1.5,1.08,1.5,1.08,1.66,1.18a24.46,24.46,0,0,0,2.82-6.44Z" style="fill: #fff"/>        <path d="M42.94,83.18a19.09,19.09,0,0,0,5.92-1.48,13.36,13.36,0,0,0,5.94-4.9,16.72,16.72,0,0,0,2-4,8.61,8.61,0,0,0,2.12,2,17.55,17.55,0,0,1-6.34,7.84,21.59,21.59,0,0,1-7.62,3,7.06,7.06,0,0,0-1.32.34Zm1.7-12.42a28.32,28.32,0,0,1,5.16,3.86l-1.72,2.18A21,21,0,0,0,43,72.73Z" style="fill: #fff"/>        <path d="M71.82,77.41a10.86,10.86,0,0,1-1.4,5.38c-1.06,1.76-2.52,2.86-5.22,3.94a6.34,6.34,0,0,0-1.62-2.2c2.4-.74,3.9-1.8,4.74-3.34a8.49,8.49,0,0,0,.88-3.78H64.32a19.75,19.75,0,0,0-2.54.1V75.13a14.06,14.06,0,0,0,2.58.14h11.7a14.19,14.19,0,0,0,2.58-.14v2.38a19.76,19.76,0,0,0-2.54-.1Zm-8-7.32a13.58,13.58,0,0,0,2.58.14h7.68a13.57,13.57,0,0,0,2.58-.14v2.44a18.85,18.85,0,0,0-2.54-.1H66.34a18.86,18.86,0,0,0-2.54.1Z" style="fill: #fff"/>        <path d="M95.75,74.19a14.33,14.33,0,0,0,2.6-.14v2.52a20.55,20.55,0,0,0-2.56-.1h-4.1c-.18,2.78-.52,4.1-1.44,5.64a12,12,0,0,1-5.1,4.48,6.22,6.22,0,0,0-1.82-2.16,9.23,9.23,0,0,0,4.82-3.94,8.65,8.65,0,0,0,1-4h-5a20.56,20.56,0,0,0-2.56.1V74.05a14.46,14.46,0,0,0,2.6.14h5c0-.84,0-1.2,0-1.56V71.45a12.6,12.6,0,0,0-.1-1.92h2.76a12.62,12.62,0,0,0-.1,1.92l0,1.2c0,1.32,0,1.32,0,1.54Z" style="fill: #fff"/>        <path d="M101.62,83.18a19.09,19.09,0,0,0,5.92-1.48,13.37,13.37,0,0,0,5.94-4.9,16.72,16.72,0,0,0,2-4,8.63,8.63,0,0,0,2.12,2,17.56,17.56,0,0,1-6.34,7.84,21.6,21.6,0,0,1-7.62,3,7.07,7.07,0,0,0-1.32.34Zm1.7-12.42a28.36,28.36,0,0,1,5.16,3.86l-1.72,2.18a21,21,0,0,0-5.1-4.06Z" style="fill: #fff"/>        <path d="M135.53,86.24a38.45,38.45,0,0,0-6.14-5.94,23.76,23.76,0,0,1-7.62,5.78,8,8,0,0,0-1.62-2.22,16.5,16.5,0,0,0,4-2.2,19.28,19.28,0,0,0,6.72-8.14l.22-.52c-.32,0-.32,0-6.62.12a15.89,15.89,0,0,0-2.18.16l-.08-2.56a8.77,8.77,0,0,0,1.76.12h.48l7-.1a4.33,4.33,0,0,0,1.78-.22l1.32,1.36a3.84,3.84,0,0,0-.64,1.08,26.47,26.47,0,0,1-3.12,5.52,31,31,0,0,1,3.7,2.9c.5.44.5.44,2.92,2.78Z" style="fill: #fff"/>        <path d="M147.07,71.09a2.31,2.31,0,0,0-.1.4l0,.34-.1.58-.06.48c-.84,5.74-2.4,9.68-5.08,12.76a8.66,8.66,0,0,0-2.28-1.72,13.49,13.49,0,0,0,2.86-4.26,24.36,24.36,0,0,0,1.88-6.86,14.66,14.66,0,0,0,.18-1.94v-.28Zm5.68-.5a24.86,24.86,0,0,0,.84,4.6A19.36,19.36,0,0,0,158,83.84a8.25,8.25,0,0,0-2.2,1.84c-2.66-3.18-4.52-7.78-5.3-13.16a8.35,8.35,0,0,0-.28-1.44Zm5.68,1.18a2.31,2.31,0,1,1-2.32-2.3A2.32,2.32,0,0,1,158.43,71.77Zm-3.62,0a1.31,1.31,0,1,0,1.3-1.3A1.3,1.3,0,0,0,154.81,71.77Z" style="fill: #fff"/>        <path d="M163.34,74.07a23.15,23.15,0,0,1,2,4.74l-2.26.72a20,20,0,0,0-1.82-4.84Zm11.48.14a4.21,4.21,0,0,0-.28,1,17.08,17.08,0,0,1-2.76,6.66,15.37,15.37,0,0,1-6.1,4.82,7.27,7.27,0,0,0-1.6-2,13,13,0,0,0,3.4-1.84A11.5,11.5,0,0,0,172,76a8.85,8.85,0,0,0,.36-2.3Zm-7.22-1a19.63,19.63,0,0,1,1.94,4.6l-2.22.7a22,22,0,0,0-1.82-4.7Z" style="fill: #fff"/>        <path d="M194.09,72.77a3.77,3.77,0,0,0-.5,1.2,20.74,20.74,0,0,1-4.1,7.72,20.2,20.2,0,0,1-7.12,5.08,6.18,6.18,0,0,0-1.7-2.1A18,18,0,0,0,185,82.32a15.84,15.84,0,0,0,5.84-8.44l-6,.1a19.56,19.56,0,0,1-4.68,5.12,5.32,5.32,0,0,0-1.94-1.72,15.38,15.38,0,0,0,5.18-5.8,7.47,7.47,0,0,0,1-2.64l2.74.54a4.21,4.21,0,0,0-.34.62,4.1,4.1,0,0,0-.26.56l-.26.52a4.72,4.72,0,0,1-.32.64c.26,0,.58,0,1,0l4.38-.06a3.55,3.55,0,0,0,1.46-.2Z" style="fill: #fff"/>        <path d="M198.77,86.2c0-.36,0-.48-.1-.94a34.9,34.9,0,0,1-.52-6,38.41,38.41,0,0,1,.82-7.82,13,13,0,0,0,.3-1.86l2.64.28a27.56,27.56,0,0,0-1.26,6,33.28,33.28,0,0,0-.3,4.42c0,.44,0,.6,0,1.1a20.34,20.34,0,0,1,1-2.64l1.6.72a16.41,16.41,0,0,0-1.78,6.06c0,.12,0,.28,0,.54Zm8.52-7.9a4.53,4.53,0,0,0-1.42,2.88c0,1.14,1.1,1.74,3.18,1.74a14.05,14.05,0,0,0,4.76-.76l.2,2.54a6.58,6.58,0,0,0-.82.12,24.71,24.71,0,0,1-4.14.38c-2.48,0-4.08-.56-5-1.74a3.35,3.35,0,0,1-.6-2,6.54,6.54,0,0,1,1.84-4.12ZM204,71.67a14.41,14.41,0,0,0,3.7.32,22,22,0,0,0,5.44-.54l.12,2.42-1.42.18a35.81,35.81,0,0,1-4.28.24,23.68,23.68,0,0,1-3.6-.22Z" style="fill: #fff"/>        <path d="M216.86,73.33a14.4,14.4,0,0,0,2.34-.4c4.56-1,5.64-1.14,8-1.14,4,0,6.54,2.22,6.54,5.62,0,2.72-1.6,5-4.44,6.4-1.82.9-3.38,1.26-7,1.66a8.68,8.68,0,0,0-1-2.58,17.19,17.19,0,0,0,6.58-1.18,5.54,5.54,0,0,0,3-3,4.4,4.4,0,0,0,.22-1.42,2.93,2.93,0,0,0-1.52-2.6,5.22,5.22,0,0,0-2.58-.54A28.51,28.51,0,0,0,219,75.62a7.3,7.3,0,0,0-1.6.56Z" style="fill: #fff"/>        <path d="M240.4,70.87a23.35,23.35,0,0,0-.16,3,37.33,37.33,0,0,0,.38,5.36c.34,2.08,1,3.36,1.62,3.36.3,0,.58-.3.82-.86a14.8,14.8,0,0,0,1.06-3.62,9.81,9.81,0,0,0,2,1.82c-1,3.9-2.2,5.52-3.9,5.52-1.34,0-2.42-1-3.22-2.9s-1.18-4.9-1.26-10.44a9.38,9.38,0,0,0-.08-1.28Zm9.46.9a20,20,0,0,1,4.5,10.76l-2.48.94a20.25,20.25,0,0,0-1.28-5.78,17.45,17.45,0,0,0-2.84-4.92Z" style="fill: #fff"/>        <path d="M256.9,71.67l.76,0c.36,0,.36,0,3.3-.2,1.12-.06,4.44-.24,10-.5a11.32,11.32,0,0,0,2.3-.2l.14,2.56-.42,0a8.94,8.94,0,0,0-4,1.08c-2.54,1.32-4,3.32-4,5.34A3.36,3.36,0,0,0,267.63,83a12.16,12.16,0,0,0,3,.52s.2,0,.4,0l-.36,2.72a4.3,4.3,0,0,0-.68-.12,12,12,0,0,1-4.68-1.32A5.35,5.35,0,0,1,262.43,80a7.06,7.06,0,0,1,1.9-4.72,8.82,8.82,0,0,1,2.78-2c-1.62.24-2.4.3-6.74.62a29,29,0,0,0-3.32.4Z" style="fill: #fff"/>      </g>      <polygon points="284 147.3 248.99 148.32 286.4 109.85 284 147.3" style="fill: #323232"/>      <polygon points="275.55 138.67 271.35 138.67 275.55 134.47 275.55 138.67" style="fill: #fff"/>    </g>  </g></svg>