<svg xmlns="http://www.w3.org/2000/svg" width="295.83" height="158.13" viewBox="0 0 295.83 158.13">  <defs>    <style>      .a {        fill: #989898;      }      .b {        fill: #b8d200;      }      .c {        fill: #fff;      }      .d {        fill: #323232;      }      .e {        fill: none;        stroke: #fff;        stroke-miterlimit: 10;        stroke-width: 4px;      }    </style>  </defs>  <title>アセット 1</title>  <g>    <polygon class="a" points="286.83 150.13 12.84 158.13 10 155.3 2.83 2.83 293 7 295.83 9.84 286.83 150.13"/>    <polygon class="b" points="284 147.3 10 155.3 0 0 293 7 284 147.3"/>    <g>      <path class="c" d="M39.6,83.43a4.3,4.3,0,0,0,.84,2.64,5.33,5.33,0,0,0,4.38,1.77c3,0,4.8-1.35,4.8-3.6a3,3,0,0,0-1.5-2.76C47.22,81,47,81,42.9,80a10.6,10.6,0,0,1-4.53-1.83,5.9,5.9,0,0,1-2.31-4.86c0-4.17,3.36-6.87,8.52-6.87,3.42,0,6,1.05,7.47,3A8.09,8.09,0,0,1,53.52,73l-4.29.51a3.87,3.87,0,0,0-.9-2.13,4.75,4.75,0,0,0-3.75-1.44c-2.61,0-4.38,1.32-4.38,3.27a2.85,2.85,0,0,0,2,2.73A25.47,25.47,0,0,0,46.47,77a13.2,13.2,0,0,1,4.89,1.83A5.92,5.92,0,0,1,53.85,84,7,7,0,0,1,52,89.07c-1.59,1.53-4,2.28-7.17,2.28a12.06,12.06,0,0,1-6.3-1.56,7.07,7.07,0,0,1-2.64-3.42,10.24,10.24,0,0,1-.57-2.49Z"/>      <path class="c" d="M62.55,83.43a4.3,4.3,0,0,0,.84,2.64,5.33,5.33,0,0,0,4.38,1.77c3,0,4.8-1.35,4.8-3.6a3,3,0,0,0-1.5-2.76C70.17,81,70,81,65.85,80a10.6,10.6,0,0,1-4.53-1.83A5.9,5.9,0,0,1,59,73.32c0-4.17,3.36-6.87,8.52-6.87,3.42,0,6,1.05,7.47,3A8.09,8.09,0,0,1,76.47,73l-4.29.51a3.87,3.87,0,0,0-.9-2.13,4.75,4.75,0,0,0-3.75-1.44c-2.61,0-4.38,1.32-4.38,3.27a2.85,2.85,0,0,0,2,2.73A25.47,25.47,0,0,0,69.42,77a13.2,13.2,0,0,1,4.89,1.83A5.92,5.92,0,0,1,76.8,84a7,7,0,0,1-1.89,5.1c-1.59,1.53-4,2.28-7.17,2.28a12.06,12.06,0,0,1-6.3-1.56,7.07,7.07,0,0,1-2.64-3.42,10.24,10.24,0,0,1-.57-2.49Z"/>      <path class="c" d="M84,80.91c0-1,0-1.68.06-3.3a15.35,15.35,0,0,1-2.31,3A16.6,16.6,0,0,0,80.34,77a21.43,21.43,0,0,0,5.07-8A21,21,0,0,0,86.55,65l3.36,1.08a8.3,8.3,0,0,0-.45,1.35A31.51,31.51,0,0,1,87.15,73V89.46a32.65,32.65,0,0,0,.15,3.48H83.85A31.58,31.58,0,0,0,84,89.43Zm12.75-4.62H93.6a28.06,28.06,0,0,0-3.06.12,26.68,26.68,0,0,0,.12-2.91V69.12a24.26,24.26,0,0,0-.12-2.73,23.47,23.47,0,0,0,3.33.15h9.57a24.58,24.58,0,0,0,3.3-.15,25.79,25.79,0,0,0-.12,2.91v4.26a24.38,24.38,0,0,0,.12,2.82,6.73,6.73,0,0,0-.87,0,6.34,6.34,0,0,1-.66,0c-.57,0-1,0-1.44,0H100v2.46h5.25a28.27,28.27,0,0,0,3.27-.18v3.36a31,31,0,0,0-3.18-.18h-4a19.85,19.85,0,0,0,3.21,3.3,20.67,20.67,0,0,0,4.8,3.06,17.13,17.13,0,0,0-2,3.21,30.54,30.54,0,0,1-3.81-2.85,17.42,17.42,0,0,1-3.6-4.26c.06,1,.09,2.4.09,3.21v2.79a20.78,20.78,0,0,0,.18,2.76H96.6a21.5,21.5,0,0,0,.18-2.79V87.36c0-.24,0-1.32.06-3.18A17.26,17.26,0,0,1,93,88.83a21.44,21.44,0,0,1-3.6,2.67,10.08,10.08,0,0,0-2-3,23.47,23.47,0,0,0,5.16-3.6,19,19,0,0,0,2.88-3.18H91.83a27.36,27.36,0,0,0-3.27.18V78.6c1,.09,1.92.15,3.27.15h4.95Zm-3-2.94h9.6V69.48h-9.6Z"/>      <path class="c" d="M112.47,70.23a13.22,13.22,0,0,0,2.4.15h6.27a16.09,16.09,0,0,0,2.4-.12v3.09a13.59,13.59,0,0,0-2.28-.12h-6.39a18,18,0,0,0-2.4.12ZM113.31,93a22.24,22.24,0,0,0,.18-2.94V85.62a14.09,14.09,0,0,0-.15-2.37,18.58,18.58,0,0,0,2.31.12h5a10.66,10.66,0,0,0,2-.09,19.08,19.08,0,0,0-.09,2.16v4.8a20.25,20.25,0,0,0,.09,2.34h-2.91v-1h-3.42V93Zm.12-27a18.52,18.52,0,0,0,2.49.12h4.38a18.73,18.73,0,0,0,2.52-.12v2.88a19.32,19.32,0,0,0-2.52-.12h-4.38a18.8,18.8,0,0,0-2.49.12Zm.12,8.76a16.41,16.41,0,0,0,2,.09h5.25a14.68,14.68,0,0,0,1.92-.09v2.79a17.29,17.29,0,0,0-1.92-.09h-5.25a17,17,0,0,0-2,.09Zm0,4.17a16.41,16.41,0,0,0,2,.09h5.25A14.68,14.68,0,0,0,122.7,79v2.79a12.54,12.54,0,0,0-2-.09H115.5a16.77,16.77,0,0,0-2,.09Zm2.79,10h3.42V86h-3.42ZM131,69.57h-3.39a27.55,27.55,0,0,0-3.45.18V66.36a26.39,26.39,0,0,0,3.45.18h8.91a26.38,26.38,0,0,0,3.45-.18v3.39a26.69,26.69,0,0,0-3.42-.18h-2.43v7.32h2.46a15.53,15.53,0,0,0,2.94-.18V80.1a15.72,15.72,0,0,0-2.94-.18h-2.46v8.82H137a27.48,27.48,0,0,0,3.33-.18V92a27.15,27.15,0,0,0-3.39-.18H126.78a23.85,23.85,0,0,0-3.36.18V88.62a11,11,0,0,0,1.86.12V77.22a20.78,20.78,0,0,0-.18-3.3h3.42a18.93,18.93,0,0,0-.18,3.3V88.74H131Z"/>      <path class="c" d="M146.49,91.44c0-.54-.06-.72-.15-1.41a52.4,52.4,0,0,1-.78-9,57.58,57.58,0,0,1,1.23-11.73,19.55,19.55,0,0,0,.45-2.79l4,.42a41.33,41.33,0,0,0-1.89,9,50,50,0,0,0-.45,6.63c0,.66,0,.9-.06,1.65a30.69,30.69,0,0,1,1.56-4l2.4,1.08c-1.65,3.48-2.67,7-2.67,9.09,0,.18,0,.42,0,.81Zm12.78-11.85c-1.5,1.74-2.13,3-2.13,4.32,0,1.71,1.65,2.61,4.77,2.61A21.09,21.09,0,0,0,169,85.38l.3,3.81a10.1,10.1,0,0,0-1.23.18,37,37,0,0,1-6.21.57c-3.72,0-6.12-.84-7.44-2.61a5,5,0,0,1-.9-2.94c0-1.95.9-4,2.76-6.18Zm-5-9.93a21.67,21.67,0,0,0,5.55.48,33.13,33.13,0,0,0,8.16-.81l.18,3.63-2.13.27a53.67,53.67,0,0,1-6.42.36,35.6,35.6,0,0,1-5.4-.33Z"/>      <path class="c" d="M173.64,72.15a21.4,21.4,0,0,0,3.51-.6c6.84-1.47,8.46-1.71,11.94-1.71,5.94,0,9.81,3.33,9.81,8.43,0,4.08-2.4,7.53-6.66,9.6-2.73,1.35-5.07,1.89-10.56,2.49a13,13,0,0,0-1.53-3.87c4.8-.21,7.32-.66,9.87-1.77a8.31,8.31,0,0,0,4.53-4.44,6.64,6.64,0,0,0,.33-2.13,4.39,4.39,0,0,0-2.28-3.9,7.81,7.81,0,0,0-3.87-.81,42.73,42.73,0,0,0-11.82,2.13,11,11,0,0,0-2.4.84Z"/>      <path class="c" d="M208.95,68.46a35,35,0,0,0-.24,4.56,56.13,56.13,0,0,0,.57,8c.51,3.12,1.47,5,2.43,5,.45,0,.87-.45,1.23-1.29a22.12,22.12,0,0,0,1.59-5.43,14.78,14.78,0,0,0,3,2.73c-1.56,5.85-3.3,8.28-5.85,8.28-2,0-3.63-1.47-4.83-4.35s-1.77-7.35-1.89-15.66a14.42,14.42,0,0,0-.12-1.92Zm14.19,1.35A29.91,29.91,0,0,1,229.89,86l-3.72,1.41a30.43,30.43,0,0,0-1.92-8.67A26.19,26.19,0,0,0,220,71.31Z"/>      <path class="c" d="M233.7,69.66c.66,0,1,0,1.14,0,.54,0,.54,0,5-.3,1.68-.09,6.66-.36,15-.75a16.9,16.9,0,0,0,3.45-.3l.21,3.84a4.61,4.61,0,0,0-.63,0,13.42,13.42,0,0,0-5.94,1.62c-3.81,2-6.06,5-6.06,8,0,2.34,1.47,4.14,4,4.89a18.21,18.21,0,0,0,4.47.78s.3,0,.6,0l-.54,4.08a6.44,6.44,0,0,0-1-.18,18.06,18.06,0,0,1-7-2A8,8,0,0,1,242,82.11,10.58,10.58,0,0,1,244.83,75,13.21,13.21,0,0,1,249,72c-2.43.36-3.6.45-10.11.93a43.58,43.58,0,0,0-5,.6Z"/>    </g>    <polygon class="d" points="284 147.3 248.99 148.32 286.4 109.85 284 147.3"/>    <polygon class="c" points="275.55 138.67 271.35 138.67 275.55 134.47 275.55 138.67"/>    <g>      <line class="e" x1="17.7" y1="50.73" x2="27.58" y2="60.61"/>      <line class="e" x1="41.05" y1="37.64" x2="44.67" y2="51.13"/>      <line class="e" x1="67.82" y1="37.3" x2="64.2" y2="50.8"/>    </g>  </g></svg>