<svg xmlns="http://www.w3.org/2000/svg" width="262.08" height="45.334" viewBox="0 0 262.08 45.334"><defs><style>.cls-1{fill:#abcd03}</style></defs><title>tit_list</title><g id="レイヤー_2" data-name="レイヤー 2"><path class="cls-1" d="M0 .689h17.859V4.9h-6.234v24.476H6.271V4.9H0zm32.012 8.724c.037-2.561-.193-5.088-3.137-5.088-1.8 0-2.944.727-2.944 2.68 0 2.18 1.377 3.022 3.059 4.091a49.806 49.806 0 0 1 6.5 4.706 7.489 7.489 0 0 1 2.408 6c0 5.431-3.594 8.26-8.835 8.26-6.425 0-8.719-3.594-8.719-8.718v-2.1H25.7v1.684c-.114 2.791.727 4.816 3.364 4.816 2.257 0 3.328-1.184 3.328-3.362a4.344 4.344 0 0 0-2.143-3.787c-2.79-2.181-6.27-3.749-8.451-6.618a7.959 7.959 0 0 1-1.377-4.4c0-4.9 2.753-7.579 8.413-7.579 8.529 0 8.3 6.583 8.337 9.413zM55.187.689h5.355V20.7c0 6.35-2.066 9.369-9.065 9.369-7.075 0-9.14-3.02-9.14-9.369V.689h5.354v19.548c0 2.754.192 5.506 3.824 5.506 3.479 0 3.671-2.752 3.671-5.506zm27.5 18.478c-.039.535-.076 1.109-.115 1.643-.268 5.241-2.027 9.256-7.994 9.256-8.8 0-9.368-5.584-9.368-13.232v-4.093C65.439 5.435 66.012 0 74.578 0c4.781.077 7.459 2.526 7.842 7.425a13.958 13.958 0 0 1 .113 2.181h-5.277c-.229-1.837-.037-5.28-2.678-5.28-4.207 0-3.861 5.014-3.861 7.231v7.957c0 2.369.192 6.231 3.861 6.231 2.945 0 2.6-4.742 2.716-6.576zm5.05 10.209V.689h5.353v11.364h7.5V.689h5.354v28.687h-5.354V16.26h-7.5v13.116zm24.169 0V.689h5.355v28.687zM130 8.23a19.2 19.2 0 0 1 1.262 4.4h.077A24.425 24.425 0 0 1 133.1 7.2l2.56-6.508h5.853l-7.572 16.488v12.2h-5.354v-12.2L121.125.689h5.852zm10.746 21.146L147.591.689h7.228l6.5 28.688h-5.738l-1.415-7.264H147.9l-1.413 7.264zm7.992-11.471h4.588l-1.452-8.145c-.267-1.341-.382-2.641-.535-3.979-.038-.652-.114-1.3-.192-1.916h-.075a31.038 31.038 0 0 0-.193 1.916c-.151 1.339-.267 2.639-.534 3.98zm41.476 1.262c-.038.536-.075 1.109-.113 1.644-.268 5.24-2.028 9.255-7.993 9.255-8.8 0-9.372-5.585-9.372-13.231v-4.092c.23-7.308.8-12.742 9.372-12.742 4.779.077 7.457 2.525 7.84 7.426a13.916 13.916 0 0 1 .115 2.179h-5.279c-.229-1.837-.038-5.278-2.676-5.278-4.208 0-3.864 5.012-3.864 7.23v7.955c0 2.371.192 6.231 3.864 6.231 2.943 0 2.6-4.741 2.716-6.577zm2.026 10.211L199.088.69h7.228l6.5 28.688h-5.736l-1.414-7.266h-6.271l-1.414 7.266zm7.994-11.472h4.589l-1.452-8.146c-.268-1.34-.383-2.641-.534-3.979-.04-.651-.114-1.3-.192-1.915h-.076a29.54 29.54 0 0 0-.192 1.915c-.151 1.339-.266 2.64-.534 3.98zm20.887-.882v12.354h-5.355V.69H225.9c4.627 0 8.147 1.606 8.147 6.889 0 3.137-.8 6.426-4.4 6.924v.075c3.174.419 4.13 2.446 4.13 5.2 0 1.188-.151 8.223 1.147 9.064v.535h-5.889c-.649-1.836-.537-5.352-.574-7.266-.037-1.759 0-4.17-1.836-4.7a16.4 16.4 0 0 0-4.549-.384zm0-4.205h4.205c1.76-.115 3.137-1.262 3.137-4.13 0-3.215-1.34-3.751-3.365-3.789h-3.977zM236.649 9.3c1.643-.228 2.563-1.3 2.446-3.633h-2.446V.69h4.628v4.555c0 3.4-1.071 5.24-4.628 5.815zm19.543.113c.039-2.56-.192-5.086-3.137-5.086-1.8 0-2.945.726-2.945 2.679 0 2.179 1.377 3.022 3.059 4.092a49.345 49.345 0 0 1 6.5 4.7 7.483 7.483 0 0 1 2.41 6c0 5.431-3.6 8.261-8.836 8.261-6.425 0-8.715-3.595-8.715-8.719v-2.1h5.352v1.682c-.115 2.791.727 4.817 3.363 4.817 2.258 0 3.33-1.184 3.33-3.363a4.343 4.343 0 0 0-2.145-3.787c-2.789-2.181-6.271-3.748-8.449-6.616a7.961 7.961 0 0 1-1.377-4.4c0-4.9 2.754-7.578 8.414-7.578 8.527 0 8.3 6.584 8.336 9.412zM.981 36.273h5.511v1.3H4.568v7.55H2.916v-7.55H.981zM7.4 39.99c.07-2.253.247-3.929 2.89-3.929s2.819 1.676 2.889 3.929v1.262c0 2.36-.177 4.082-2.889 4.082S7.4 43.612 7.4 41.252zm1.7 2.087c0 .733.058 1.923 1.192 1.923 1.179 0 1.19-1.215 1.19-2.063v-2.264c0-.709.036-2.277-1.19-2.277-1.3 0-1.192 1.545-1.192 2.229zm4.991-5.804H19.6v1.3h-1.923v7.55h-1.65v-7.55h-1.936zm5.809 8.849l2.112-8.849h2.228l2.006 8.849h-1.771l-.437-2.242H22.1l-.439 2.242zm2.464-3.539h1.416l-.45-2.513c-.084-.413-.119-.815-.164-1.23-.012-.2-.037-.4-.061-.587h-.023c-.023.188-.047.39-.059.587-.047.414-.084.816-.164 1.23zm4.79 3.539v-8.849H28.8v7.55h3.067v1.3zm14.087-3.15l-.034.508c-.083 1.617-.627 2.855-2.467 2.855-2.715 0-2.891-1.722-2.891-4.082V39.99c.072-2.253.248-3.929 2.891-3.929a2.214 2.214 0 0 1 2.418 2.289 4.087 4.087 0 0 1 .037.672h-1.629c-.072-.566-.012-1.627-.826-1.627-1.3 0-1.191 1.545-1.191 2.229v2.453c0 .732.059 1.924 1.191 1.924.908 0 .8-1.463.838-2.029zm.627 3.15l2.113-8.849h2.229l2 8.849h-1.77l-.43-2.242h-1.937l-.436 2.242zm2.466-3.539h1.416l-.45-2.513c-.082-.413-.117-.815-.165-1.23-.013-.2-.036-.4-.059-.587h-.023c-.023.188-.046.39-.058.587-.049.414-.084.816-.166 1.23zm6.42-.271v3.811H49.1v-8.85h3.127c1.427 0 2.512.5 2.512 2.124 0 .968-.248 1.982-1.355 2.135v.023c.978.131 1.273.756 1.273 1.605 0 .365-.048 2.536.353 2.8v.166h-1.817a8.968 8.968 0 0 1-.176-2.242c-.012-.541 0-1.285-.566-1.451a5.055 5.055 0 0 0-1.4-.117zm0-1.3h1.3c.542-.036.967-.39.967-1.273 0-.992-.412-1.158-1.037-1.169h-1.23zm8.531 5.11v-8.849h1.65v7.55H64v1.3zm5.915 0v-8.849h1.652v8.849zm3.323 0v-8.849h4.684v1.3h-3.031v2.24h2.842v1.3h-2.842v4.011zm5.794 0v-8.849h4.649v1.3h-3V39.8h2.764v1.3h-2.761v2.725h3v1.3zm8.947 0v-8.849h3.442a2.047 2.047 0 0 1 1.711 1 6.212 6.212 0 0 1 .483 3.057c0 1.744 0 3.764-1.355 4.553a2.433 2.433 0 0 1-1.227.236zm2.37-1.3c1.474 0 1.567-.778 1.567-3.338 0-2.088-.212-2.913-1.2-2.913h-1.088v6.251zm4.743 1.3v-8.849h4.649v1.3h-3V39.8h2.762v1.3h-2.761v2.725h3v1.3zm5.251 0l2.112-8.849h2.228l2.006 8.849h-1.769l-.435-2.242h-1.936l-.434 2.242zm2.464-3.539h1.417l-.448-2.513c-.082-.413-.117-.815-.164-1.23-.012-.2-.037-.4-.06-.587h-.023c-.023.188-.046.39-.058.587-.048.414-.083.816-.165 1.23zm4.793 3.539v-8.849h1.651v7.55h3.064v1.3zm5.852 0v-8.849h4.65v1.3h-3V39.8h2.762v1.3h-2.762v2.725h3v1.3zm7.575-3.81v3.811h-1.652v-8.85h3.127c1.428 0 2.514.5 2.514 2.124 0 .968-.248 1.982-1.357 2.135v.023c.981.131 1.275.756 1.275 1.605 0 .365-.048 2.536.352 2.8v.166h-1.814a8.79 8.79 0 0 1-.179-2.242c-.011-.541 0-1.285-.565-1.451a5.065 5.065 0 0 0-1.4-.117zm0-1.3h1.3c.541-.036.966-.39.966-1.273 0-.992-.411-1.158-1.038-1.169h-1.227zm11.906-1.048c.012-.79-.06-1.568-.968-1.568-.555 0-.906.222-.906.825 0 .673.422.931.942 1.263a14.984 14.984 0 0 1 2.007 1.451 2.3 2.3 0 0 1 .742 1.851 2.43 2.43 0 0 1-2.726 2.548 2.382 2.382 0 0 1-2.688-2.69V42h1.65v.518c-.035.862.226 1.487 1.038 1.487a.915.915 0 0 0 1.026-1.037 1.339 1.339 0 0 0-.66-1.168 12.978 12.978 0 0 1-2.606-2.042 2.448 2.448 0 0 1-.426-1.356c0-1.51.851-2.336 2.6-2.336 2.629 0 2.559 2.029 2.571 2.9zm3.199 6.158v-8.849h1.651v8.849zm7.221-8.849h1.651v8.849h-1.723l-1.287-3.15a30 30 0 0 1-1.178-3.516h-.025c.061.732.131 1.629.177 2.525s.083 1.768.083 2.479v1.662h-1.65v-8.849h1.709l1.287 3.222a29.538 29.538 0 0 1 1.178 3.516h.025c-.06-.8-.117-1.663-.164-2.514s-.083-1.7-.083-2.489zm8.494 5.699l-.034.508c-.082 1.617-.626 2.855-2.468 2.855-2.712 0-2.889-1.722-2.889-4.081V39.99c.069-2.253.248-3.929 2.889-3.929a2.216 2.216 0 0 1 2.421 2.289 4.55 4.55 0 0 1 .035.672h-1.629c-.069-.566-.01-1.627-.827-1.627-1.295 0-1.19 1.545-1.19 2.229v2.453c0 .732.059 1.924 1.19 1.924.911 0 .8-1.463.839-2.029zm1.276 3.15v-8.849h4.648v1.3h-3V39.8h2.759v1.3h-2.759v2.725h3v1.3zm10.606-6.135h-1.993v-1.18c1.145-.012 2.1-.318 2.431-1.534h1.217v8.849h-1.654zm7.861 2.737c0 2.821-.8 3.574-2.547 3.574-1.3 0-2.231-.59-2.186-1.992h1.534c.011.294.048.731.721.7.933 0 .839-1.121.862-1.651v-.565a1.515 1.515 0 0 1-1.3.588c-1.405 0-2.007-.956-2.007-2.772 0-2.217.543-3.362 2.455-3.362 1.972 0 2.489 1.285 2.467 3.362zm-2.5-4.187c-.862.012-.767.815-.767 1.947 0 .637-.083 1.594.8 1.594.816 0 .816-.863.816-1.594.012-1.098.036-2.031-.851-1.948zm3.48 2.276c0-2.819.815-3.574 2.559-3.574 1.3 0 2.23.59 2.184 1.993h-1.532c-.013-.295-.036-.742-.71-.7-.932.071-.848 1.121-.872 1.652v.565a1.513 1.513 0 0 1 1.3-.59c1.406 0 1.994.956 1.994 2.773 0 2.218-.531 3.36-2.443 3.36-1.971 0-2.5-1.283-2.477-3.36zm2.5 4.188c.861-.012.768-.813.768-1.947 0-.638.084-1.592-.8-1.592-.812 0-.812.861-.812 1.592-.011 1.097-.039 2.03.844 1.946zm8.321-2.277c0 2.821-.8 3.574-2.549 3.574-1.3 0-2.23-.59-2.183-1.992h1.534c.012.294.045.731.719.7.932 0 .838-1.121.86-1.651v-.565a1.514 1.514 0 0 1-1.3.588c-1.4 0-2-.956-2-2.772 0-2.217.544-3.362 2.454-3.362 1.971 0 2.489 1.285 2.467 3.362zm-2.5-4.187c-.863.012-.769.815-.769 1.947 0 .637-.082 1.594.8 1.594.815 0 .815-.863.815-1.594.013-1.098.036-2.031-.846-1.948z" id="letter"/></g></svg>