<svg xmlns="http://www.w3.org/2000/svg" viewBox="0 0 195.97 258.42"><defs><style>.cls-1{isolation:isolate}.cls-2{fill:none;stroke:#d0e259;stroke-miterlimit:10}</style></defs><title>img_shop_map</title><g id="レイヤー_2" data-name="レイヤー 2"><g class="cls-1" id="main_SHOP1"><path class="cls-2" d="M23.32 98.7c.22-1.15.6-3.94.6-4.54s-.49-2.46-.11-2.46a12.51 12.51 0 0 0 3-1 14.71 14.71 0 0 0 2.57-3.34 6.12 6.12 0 0 0-.6-2.13c-.22-.22-2.79-2.79-2.79-3.39s.38-3.83.05-4.32-1.75-1.48-2.13-2.13a15.26 15.26 0 0 1-1.2-3.28c0-.38 2.17-2.2 2.17-2.69-.09-1.42-.44-4.63-.44-7.17a30.09 30.09 0 0 1 .94-7.57 9 9 0 0 0-.19-6.43c-.95-2.42-4.88-10-5.9-11.08s-2.29-1.75-2.75-2.7-1.47-4.54-2-5.3-1.44-1.13-1.44-2a8.3 8.3 0 0 0-.87-3.06c-.42-.79-.8-1.29-.61-2s.27-6.88-.23-7.64-4.08-4.05-4.54-5.19S4.77 4 4.77 3A4 4 0 0 1 6.32.54c.49-.34 2.38 1.36 3 3.14s1.77 5.22 2.68 6.4 9 8 10 10.36 1.44 4.92 2.16 5.37 4.54 3.06 5.33 3.1 2.84 0 3 1-.64 3.63-.49 3.93 7.34 4.8 8.25 5.86 2.27 2.46 2.84 2.5 3.52-.87 4.09-.38a28.52 28.52 0 0 0 2.65 2.46 26.58 26.58 0 0 1 3.25 1.89 14.79 14.79 0 0 0 4 2.65c.79.11 1.66-1.32 2.5-1.17s5.71 1.89 6.2 2.5 2.53 5.22 3.59 5.52a4.3 4.3 0 0 0 2.91.08c.95-.38 6.88-3.78 8.36-3.63s3.93 1.85 4.54 1.82 6.13-4.39 7.19-4.39 4.65 2.31 6.13 2.12a8.68 8.68 0 0 0 4.5-2.86c.79-1.06 3.63-4.2 5-4.8a35.25 35.25 0 0 1 6.73-2 8.82 8.82 0 0 0 2.65.08c1.06-.26 4.69-1.59 5.26-2.31s.42-1.48 1.21-1.29 4.46 3.44 5.75 4 2.53.79 1.55 0-2.34-2.46-2.38-3.86 0-1.32.53-1.32 1.21-1.51 1.78-3 1.21-3.1 1.51-2.95 3.74 3.74 6.43 5.33 5.48 3.44 5.83 4 .79 1.36 1 1.29a.52.52 0 0 1 .6.23c.15.23 0 .53.72.76a4.14 4.14 0 0 1 1.83 1.6c.42.64 4.12 8 4.8 8.25s10.14 2 12.07 4 5.11 9.91 6.17 10.89 14.15 10.59 14.87 10.63a28.33 28.33 0 0 0 4.84-.53c.39-.16.46-.32.49-.38.45.08 1 .19 1.32.23s1.13.3 1.13.68.53.45.23.61-.68.42-.49.53.87.79.64 1-.27.68.07 1.32.38.94.08 1.1a1.44 1.44 0 0 0-.61 1.25c0 .53.72.76.45 1s-.76 0-.95.38a2.38 2.38 0 0 0 0 2c.42.6.26.64-.45.42s-1.17-.68-1.63-.72-1.14.11-1.14-.26 0-1-.42-1-.68-1.85-1.63-2a20.86 20.86 0 0 0-8.47 1.66 61.86 61.86 0 0 1-7.72 2.84 4 4 0 0 1-2.53-.3c-.53-.45-.95-1.89-2-1.93s-8.25-.08-21.6 11.27-24 22.54-30.26 37.86-4.43 29.84-3.06 30.53 3.41 4.2 2.72 5.45a20.53 20.53 0 0 0-2 5c-.3 1.59-.64 5.26-.34 5.52s.6.27.72.61 0 .57 0 1.06a4.41 4.41 0 0 0 0 1.44c.15.3.45.3.11.83s-1.29 1.47-1.25 1.78.27.42 0 .87a11.5 11.5 0 0 0-1.1 3.22c0 .72.45 1.85.19 2a1.47 1.47 0 0 0-.76.76c-.15.41-.64.72-.79 1.13s-1.21 2.65-1.89 2.65-1.93-.72-2.72-.64-1.29.19-1.55.87a3.82 3.82 0 0 1-1.17 1.59c-.53.45-1.74 1.7-1.74 2.46s-.95 2.35-.95 3.1a1.34 1.34 0 0 1-.79 1.44c-.61.3-.83-.23-1.13 0s-.83 1.32-.83.61.61-1.17.38-1.89-.3-1.36-1.51-1.4-1.55.41-1.59.76-.83.53-.83 1.1-.08 1.06.23 1 0 .15-.57.26-.38.23-.76.46-.95 0-1 .19-.19 1-.53.64.42-1 .19-1.17-.87-.49-1.1-.26-.27.42-.68.42.11-.61-.61-.53-1-.26-1 0 .34.64-.19.64-.76-.23-.91-.11-.87.23-.42.87.49.61-.11.79-1.7.38-1.93 1 .49.76.15 1.1-.6.83-1 .64-1.59-.68-2-.45-1.55.19-2.12.64-.53.87-1 .8-.15-.3-.53-.76-1.17-.6-.76-1.17 0-1.78-.38-1.78a1.63 1.63 0 0 0-1.4.87c-.23.6-.19 1.17-.57.91s-.53-.53-.91-.45-.53-.45-1.29-.45-.95.08-1.74.08-1.21-.19-1.21.23 0 1.06-.49 1.1-1.66-1.21-2.38-1.17-2.69 1.36-3.71 2.34-1.78 2.27-1.63 2.76.27.64 0 .95a1.42 1.42 0 0 0-.42.72c-.08.3 0 .91-.49.95s-.64.42-.15 1 .76.83.19 1a12.31 12.31 0 0 1-2.23.79c-.49 0-.27.61-.76.72s-.64.42-.26.64.8.53.19.64-.95-.38-1 0-.34 1.4-.53 1.36a5.56 5.56 0 0 0-5.6.72 35 35 0 0 0-4.09 3.67c-.42.19-1.1-.08-1.4.23a33.23 33.23 0 0 0-4.73 4.54 11 11 0 0 0-1.89 5.83c-.08.38-1 1-1 1.29a3.13 3.13 0 0 1-.68 1.82c-.61.79.19 2.72.57 3.86s-.3 2.08-.3 2.53-.53.83-.79 1.21-.61.3-.83.76-.11.64-.34.91-.3.08-.64.61-.23.42-.91.68-.3.6-.64 1.13-.72.49-1.14.87-1 .38-1.66.61-.83.38-.83.64-.11.38-.57.38-.87-.19-1.06 0 0 .26-.72.26-1.63-.3-2.12-.08-.72 1.06-1 1-.45-.64-1-.57-1.85.3-2.08 0-.34-1-.91-.8a17.4 17.4 0 0 1-3.67.76c-1 .1-1.66-.53-2.57-1.21s-1.29-1.06-1.06-1.74.15-1 .3-1.51.6-2.12-2-3.86a24.3 24.3 0 0 0-5.9-3c-.38 0-.3.15-.91.3s-1 .38-1.06-.15 0-.53-.45-.53-1.59.3-1.36-.15.76-.23 0-.68-.91-.45-.91-.83.61-.08.23-.76-.45-.68-.15-1-.15-1.06.38-.83.6.76.83.61 1.06.38 1.44.08.15-.83.45-.61a1 1 0 0 0 .91.23c.38-.08.91-.45 1 0s.53.76 1.21.68a17.1 17.1 0 0 0 3.56-.83c.83-.38 2.5.38 2.5-.38a12.06 12.06 0 0 1 .38-2.19s-.45-.53.23-.45 2 .3 2.5-.15 0 1.29.61 1.51 1.89-.68 2-1.59.53-5.37-.76-6.66-1.06.15-1.44-.15-.61-1-1.29-1.44-1-.68-1.36-.38-.76.15-1.59-.3-1.59-.38-1.51-1 .23-1 .6-.83.83.83 1.21.68 0 .53.53.08 1.44-.83 1.29-1.36-.23-.68 0-1-.83-.08-.83-.61a3.82 3.82 0 0 0-.53-2.35c-.53-.53-.91-.61-.68-1s.07-.61.68-1.06 3.18-1.29 3.18-2.2-.38-3.4-.83-3.4-1.14-.23-1.66-.23-.15-.3-.08-.83-1.29 0-.61-.53 1.29.23.68-.53-1.36-.3-.61-.76.83-.53.83-1.13.68.15.68-.53.76-.61.53-1.21-.68-.91-.07-.83 1.13.61.76-.15-.53-.23-.53-.91a3.32 3.32 0 0 0-1.06-2.19c-.68-.68.08-1.06-.76-1.36s-1.51-.08-1.51-.68 1-1.89.68-2.35a2.56 2.56 0 0 1-.68-2 5.34 5.34 0 0 0-.15-1.66c-.15-.61.61-1.44.76-2s1.21-1 1.21-1.81 1.13-.76 2.19-1.36 1.29-.91 1.44-1.29 3.56-.38 3.71-3-.68-5.83-1.66-7-2-2-2-2.65-.23-.83 0-1.14.83-1 .61-1.36a9.68 9.68 0 0 0-5.75-4.24c-3.93-1.13-5.75-1.59-6.35-2s-1.06-.45-.23-.45 6.05.53 6.05-.68-.38-.83 0-1.21a1.28 1.28 0 0 1 .83-.38l.3.23 3.1-1.89-.61-1.06-1.21.45-1-1.74 2.27-3 1.44 2.42 1.66-.83-.61-1.66-2.27-1.29 1.06-2.12 6.58 3 1.51.15.45.61.68-.23-1.29-1.74-.53-1.12.91-.23.3.53.83-.23.38.68 1.06-.45-.76-1.14-1 .38-.08-.45 2.5-.91s1.21.3.76 0-1.12-1.18-.82-1.18 1.36 1.28 1.29.45-.08-.76-.91-1.21-1.06.45-1.44-.45a2.7 2.7 0 0 1-.38-1.59 2.77 2.77 0 0 0-.45-1.82 3.29 3.29 0 0 1-.38-2c.08-.45-.91-1.44-.3-1.59s1.06.15 1.06-.76 1-.76 1.59-1.29a17.73 17.73 0 0 0 1.7-1.42c.45-.53.68 0 1.36-.15s1.66-.45 1.89-.45 1.44.23 1.44.23l.38-2.95 1.89-.53.61 1.66-1.06.45-.6-1-.53.23.6 1.66 3.18-1-1.51-4.31 2.8-1.13 1.74 3.78-.53.45.15.53 1.59-.83-.38-.61-.3.15-.83-2.42.61-.53.68 1.21.91-.38-.6-1.29 1.21-.76a2.33 2.33 0 0 1 2 1.21l.68-.45-.83-1 .15-.53-.83-.53 1.51-2.72 1.51.53.23-.76-.91-.83 1.51-2.19 1.59.91.3-1.06-1.13-.83 2-3.1 1.13.6.61-1.06-.83-.61s.68-.91 1-1.44.83.07 1.21-.61a4.72 4.72 0 0 1 .68-1l3.1 2.57 1.29.57.68-.72-.49-.72-.61.45-.79-.49.87-.72-.38-.6-.83.49-.38-.68 1.26-1.13c.53-.49 3.52 1.25 3.52 1.25l.3-.61s-3.22-1.55-3.71-1.82-.95-.76 0-.94 5.83-.61 5.83-.61v-.45H58.6l-.72-4 3.9.15 1.17 3.15h.61l-.68-3.56 1.06-.61-.45-.72-1 .64-.38-.15.45-1.59-.3-.3-.34.3.11.38-.72 1.06-2-.15 1.66-1.55-.34-.23.64-.38-.57-.38-.64.45-2-1.93-.72.6 1.48 2-.45 1S46.46 96.36 46 96s-.64-.49-1.29-.11a13.54 13.54 0 0 1-3.25.57l-.15-1.1 2.8-.08v-1l-2.87.11-.16-1.39 1-.19v-.68l-1.25-.57.72-2.65-.83-.42-.19.83.34.15-.49 1.25s-.83-.38-1.06-.3a2.67 2.67 0 0 1-.76.15c-.23 0-2 .41-2 .41l-.87-1.89-.42.42 1 2-.83 1.17-.83-1.59L32 92.65l-.42.61 2.65-.49.19.61s-3.06.64-3.67 1.29a10 10 0 0 0-1.17 1.66l3.59 3.33-5.17 3.28-.91-1.06.45-.61-.34-.3-.57.53-.42-.26-.45.45 1.74 1.78-2 1.29-.76-2.16-.87.91-2.53-.83v-1.74c0-.61 1.32-1.4 1.74-1.93a1 1 0 0 0 .14-.29"/></g></g></svg>