<svg xmlns="http://www.w3.org/2000/svg" width="178.38" height="87.27" viewBox="0 0 178.38 87.27">  <title>アセット 1</title>  <g id="レイヤー_2" data-name="レイヤー 2">    <g id="main_hover">      <polygon points="166.59 66.46 31.31 72.66 7.62 59.28 0 36.85 34.9 12.69 166.59 19.66 178.38 41.02 166.59 66.46" style="fill: #ff003c;fill-rule: evenodd"/>      <path d="M44.19,65" style="fill: #ff003c;fill-rule: evenodd"/>      <polygon points="84.56 87.27 47.71 55.31 66.14 55.31 84.56 87.27" style="fill: #ff003c;fill-rule: evenodd"/>      <g>        <path d="M54.78.45a14.13,14.13,0,0,1,1,3.24L54.62,4A14.11,14.11,0,0,0,53.68.75Zm8.83.73a.35.35,0,0,1-.36.15c-1.47,4.21-3.56,6.57-7.4,8.07a6.31,6.31,0,0,0-.75-1c3.69-1.33,5.69-3.53,7-7.83ZM58.62,0A20.63,20.63,0,0,1,59,3.41l-1.22.1A19.58,19.58,0,0,0,57.41.1Z" style="fill: #fff"/>        <path d="M76.4,5.54l-4-.21a6.23,6.23,0,0,1-3.61,5,7.46,7.46,0,0,0-.92-.83,5.28,5.28,0,0,0,3.32-4.23L66.47,5l.06-1.1,4.78.25c.06-.7.11-1.39.15-2.23a36.89,36.89,0,0,1-3.9.39,6.71,6.71,0,0,0-.27-1A30,30,0,0,0,74.71.17l.8,1a.27.27,0,0,1-.18,0l-.13,0a22.25,22.25,0,0,1-2.67.62l.47.06a.3.3,0,0,1-.31.22c-.05.79-.09,1.48-.17,2.15l4,.21Z" style="fill: #fff"/>        <path d="M89.86,3.4a.28.28,0,0,1-.2.12,12,12,0,0,1-2.93,4.13,5.81,5.81,0,0,0-1-.76A8.67,8.67,0,0,0,88,4l-3.9.54L85,10.89,83.73,11l-.86-6.29-3.27.45-.18-1.14,3.29-.45-.43-3,1.62,0c0,.16-.11.25-.32.31l.34,2.62,4.84-.66.14-.08Z" style="fill: #fff"/>        <path d="M98.59,1.22c0,.09-.14.15-.31.14-.15.35-.34.78-.54,1.17l4.17.22-.5,9.57-1.2-.06,0-.62-6-.31,0,.66-1.15-.06.5-9.61,2.93.15A13.5,13.5,0,0,0,97.06.85Zm-4.27,9,6,.31L100.38,9l-6-.31Zm6.2-3.87-6-.31-.08,1.56,6,.31Zm.14-2.6-6-.31L94.6,5l6,.31Z" style="fill: #fff"/>        <path d="M115.86,4.72l.6.06c0,.1,0,.25,0,.37-.39,5.12-.6,6.83-1,7.32s-.71.51-1.5.47l-.78-.06a2.82,2.82,0,0,0-.26-1.07c.51.07,1,.1,1.19.11a.41.41,0,0,0,.42-.18c.28-.32.48-1.83.79-6l-1.41-.07c-.14,2.4-.57,5.33-2.87,7.2a4.55,4.55,0,0,0-.81-.75,4.44,4.44,0,0,0,.35-.32c-1.87.14-3.78.26-5,.33a.23.23,0,0,1-.19.17L105,11.15c.69,0,1.58,0,2.56-.08l0-.91-2.2-.12,0-.85,2.2.12,0-.63-2.12-.11.19-3.64,2.12.11,0-.65-2.52-.13,0-.85,2.52.13,0-.65c-.72,0-1.47,0-2.15,0a3,3,0,0,0-.23-.83,29.51,29.51,0,0,0,5.09-.39l.73.87a.19.19,0,0,1-.12,0l-.13,0a17.74,17.74,0,0,1-1.93.25l-.21.06,0,.71,2.54.13,0,.85L109,4.44l0,.65,2.24.12L111,8.85l-2.24-.12,0,.63,2.32.12,0,.85-2.32-.12,0,.83,2.35-.1,0,.42a9.37,9.37,0,0,0,1.84-5.73l-1.28-.07.06-1.07,1.28.07L113,1.82l1.34.14c0,.11-.09.16-.29.19l-.13,2.47ZM106.6,7.85l1.17.06,0-.69-1.17-.06Zm.11-2.11,0,.69,1.17.06,0-.69ZM110.07,8l0-.69-1.26-.07,0,.69Zm.11-2.11-1.26-.07,0,.69,1.26.07Z" style="fill: #fff"/>        <path d="M130,11.1l-.05,1L125,11.87l-.09,1.7-1.17-.06.09-1.7L119,11.56l.05-1,4.83.25,0-.83-3.58-.19L120.59,5l3.58.19,0-.77-4.52-.24.05-1,4.52.24.06-1.05,1.46.16c0,.1-.1.16-.3.19l0,.77,4.58.24-.05,1-4.58-.24,0,.77,3.69.19-.25,4.79L125.09,10l0,.83Zm-8.51-2.21L124,9,124,8l-2.48-.13ZM121.64,6l-.05,1,2.48.13.05-1Zm6.05,3.25.05-1-2.55-.13-.05,1Zm.15-2.92-2.55-.13-.05,1,2.55.13Z" style="fill: #fff"/>        <path d="M133.61,13.36a14.87,14.87,0,0,1-.27-4.43,30.12,30.12,0,0,1,.91-5.46l1.53.38a.34.34,0,0,1-.35.2,20.79,20.79,0,0,0-1,5.51,10.83,10.83,0,0,0,0,1.57c.25-.58.73-1.62,1-2.11l.63.79a13.8,13.8,0,0,0-1.34,3,2.23,2.23,0,0,0,.07.57Zm3.49-7.07c.51.05,2.26.13,2.82.11,0-1,0-1.84,0-2.72l1.57.14c0,.12-.12.21-.31.24,0,.68-.07,1.26-.09,2.32A12.1,12.1,0,0,0,143.36,6l.06,1.18a12,12,0,0,1-2.31.26c0,1.2,0,2.44,0,3.22a8.85,8.85,0,0,1,2.26,1.57l-.69,1.07a6.2,6.2,0,0,0-1.6-1.33c-.12,1.2-.64,1.92-2.23,1.84-1.44-.08-2.31-.87-2.25-2s1.28-1.79,2.46-1.73a4.84,4.84,0,0,1,.9.16c0-.69,0-1.8,0-2.81l-1.12,0-1.75-.09Zm2.87,5.1a2.88,2.88,0,0,0-1-.24c-.65,0-1.37.16-1.4.79s.56.86,1.29.9,1.06-.33,1.1-1.08Z" style="fill: #fff"/>        <path d="M148.73,9.2a.86.86,0,1,1-.82-.91A.86.86,0,0,1,148.73,9.2Zm4,.21a.86.86,0,1,1-.82-.91A.86.86,0,0,1,152.72,9.41Zm4,.21a.86.86,0,1,1-.82-.91A.86.86,0,0,1,156.7,9.62Z" style="fill: #fff"/>      </g>    </g>  </g></svg>