<svg xmlns="http://www.w3.org/2000/svg" viewBox="0 0 37.17 51.3">  <defs>    <style>      .cls-1 {        fill: #f8ea21;      }    </style>  </defs>  <title>txt_recruit_yel</title>  <g id="レイヤー_2" data-name="レイヤー 2">    <g id="recruit">      <g>        <path class="cls-1" d="M.88,45.3A2.81,2.81,0,0,1,2,43.55a2.49,2.49,0,0,1,2-.22,3,3,0,0,1,1.5.79A1.88,1.88,0,0,1,6,45.53H6a1.83,1.83,0,0,1,.74-1,2.08,2.08,0,0,1,1.29-.13l.6.1.72.15q.78.16,1.2.21a.78.78,0,0,0,.64-.22l.08,0-.52,2.12a1.1,1.1,0,0,1-.52.08l-.56-.08-1.88-.4a1.57,1.57,0,0,0-1,.07,1.08,1.08,0,0,0-.54.79l-.26,1,4.11,1-.48,2L0,48.92Zm4,1.88A1.64,1.64,0,0,0,4.85,46a1.47,1.47,0,0,0-1-.66,1.23,1.23,0,0,0-1.68,1l-.23.92,2.8.69Z"/>        <path class="cls-1" d="M6.22,34.5,4.94,37.83l2.2.84,1.21-3.14,1.54.59L8.68,39.27l2.51,1,1.33-3.46,1.54.59L12,42.71,2.68,39.12l2-5.21Z"/>        <path class="cls-1" d="M9.6,28a1,1,0,0,0-.88.6.94.94,0,0,0-.11.64,1.33,1.33,0,0,0,.4.65,5.48,5.48,0,0,0,1,.73q.62.4,1.56.9a17.42,17.42,0,0,0,1.65.8,4.08,4.08,0,0,0,1.07.3,1,1,0,0,0,.65-.11,1.17,1.17,0,0,0,.38-.44,1.32,1.32,0,0,0,.15-.48.84.84,0,0,0-.13-.52,2.39,2.39,0,0,0-.55-.6,7.08,7.08,0,0,0-1.11-.7l1-1.78a9,9,0,0,1,1.3.84,3.45,3.45,0,0,1,.9,1,2.32,2.32,0,0,1,.3,1.25,3.64,3.64,0,0,1-.49,1.57,3.8,3.8,0,0,1-1.17,1.42,2.46,2.46,0,0,1-1.41.41,4.65,4.65,0,0,1-1.66-.37,21,21,0,0,1-3.7-2A4.64,4.64,0,0,1,7.41,31,2.58,2.58,0,0,1,7,29.58a3.63,3.63,0,0,1,.51-1.77,3.5,3.5,0,0,1,1.11-1.33,2.38,2.38,0,0,1,1.22-.4,3.08,3.08,0,0,1,1.21.21,9.74,9.74,0,0,1,1.07.48l-1,1.78A3.63,3.63,0,0,0,9.6,28Z"/>        <path class="cls-1" d="M13.19,19.07a2.81,2.81,0,0,1,1.66-1.22,2.5,2.5,0,0,1,2,.56,3,3,0,0,1,1.1,1.29,1.88,1.88,0,0,1-.07,1.5l0,0a1.83,1.83,0,0,1,1-.61,2.07,2.07,0,0,1,1.24.36l.52.32.61.41q.67.44,1,.64a.78.78,0,0,0,.68,0l.07,0L21.82,24.2a1.11,1.11,0,0,1-.51-.12q-.25-.13-.49-.29l-1.59-1.07a1.57,1.57,0,0,0-.92-.3,1.08,1.08,0,0,0-.79.53l-.63.88,3.43,2.47-1.18,1.64L11,22.1Zm3,3.25a1.65,1.65,0,0,0,.38-1.11,1.47,1.47,0,0,0-.71-1,1.23,1.23,0,0,0-1.94.33l-.55.77L15.74,23Z"/>        <path class="cls-1" d="M23.53,17.38a4.38,4.38,0,0,0,.54.44,1.54,1.54,0,0,0,.52.24,1,1,0,0,0,.51,0,1.35,1.35,0,0,0,.8-.85,1,1,0,0,0,0-.51,1.58,1.58,0,0,0-.27-.51,4.62,4.62,0,0,0-.47-.51l-5.09-4.77,1.38-1.47,5.09,4.77a4.05,4.05,0,0,1,1,1.27,2.54,2.54,0,0,1,.23,1.2,2.41,2.41,0,0,1-.34,1.08,5.55,5.55,0,0,1-.72,1,6.28,6.28,0,0,1-.9.79,2.42,2.42,0,0,1-1,.43,2.33,2.33,0,0,1-1.2-.14,4.27,4.27,0,0,1-1.38-.93l-5.09-4.77,1.38-1.47Z"/>        <path class="cls-1" d="M24.06,7l1.52-1.33,6.57,7.54-1.52,1.32Z"/>        <path class="cls-1" d="M34.09,1.34,32.31,2.61,37.17,9.4l-1.64,1.18L30.67,3.79,28.9,5.06l-1-1.34L33.12,0Z"/>      </g>    </g>  </g></svg>