<svg xmlns="http://www.w3.org/2000/svg" viewBox="0 0 152.91 22.9"><defs><style>.cls-1{fill:#ff003c}.cls-2{fill:#fff}.cls-3{fill:none;stroke:#fff;stroke-linecap:round;stroke-linejoin:round;stroke-width:2px}</style></defs><title>txt_menu_qa</title><g id="レイヤー_2" data-name="レイヤー 2"><g id="main_hover"><path class="cls-1" d="M0 0h152.91v22.9H0z"/><path class="cls-2" d="M33.3 16a26.22 26.22 0 0 1 2.6 2.4l-1.78 1.89a17.28 17.28 0 0 0-1.83-1.94 10 10 0 0 1-3.12 3.23 10.18 10.18 0 0 0-2.07-1.91A7.28 7.28 0 0 0 30.35 16H27v-2.36h1.5a15.35 15.35 0 0 0-1.72-1.25 10.65 10.65 0 0 0 1.65-4.47h.15c-.62-.46-.81-1.25-.81-2.53V.85l3.39.15c0 .22-.2.37-.62.44v1.48a33.62 33.62 0 0 0 3.74-1.58l1.87 2c-.09.09-.22.09-.53.09a52 52 0 0 1-5.08 1.63c0 1 0 1.1 1 1.1h2.38c.66 0 .81-.24.9-1.61a8.39 8.39 0 0 0 2.42.92c-.31 2.35-1.06 3-3.06 3H30.7l.9.22c-.09.24-.29.31-.55.29 0 .22-.11.42-.15.64H36V12h-2.29v1.63h2.79V16zm-3.23-4a10.45 10.45 0 0 1-.9 1.63h1.69V12zm13.29 4.14v2.62a9.17 9.17 0 0 0 1.56.13h2.93a9.57 9.57 0 0 0-.77 2.55h-2.36c-2.33 0-4.33-.57-5.76-2.82a8.6 8.6 0 0 1-1.63 3.06 15.73 15.73 0 0 0-2.38-1.52C36.6 18.54 37 15.48 37.1 12l3.28.33q0 .33-.53.4c0 .88-.11 1.72-.22 2.55a6.25 6.25 0 0 0 .88 1.72v-5.89h-3.82V8.58h5.46a43.08 43.08 0 0 0-4-2.11l1.95-1.92c.42.15.86.35 1.32.57a11.49 11.49 0 0 0 1.45-1.25h-5.59V1.49h7.79l.46-.13 2.13 1.21a.77.77 0 0 1-.48.33A17.29 17.29 0 0 1 44 6.42c.53.31 1 .59 1.41.86l-1.25 1.3h1.89l1.58.07a18.81 18.81 0 0 1-1.32 4.62l-2.24-.62c.13-.42.29-1 .42-1.54h-1.14v2.55h3.15v2.49zm18.54-6.07h-5.59v11.6h-3.17V1.56h8.76zM58.9 4h-2.6v.79h2.6zm-2.6 3.72h2.6v-.86h-2.6zm15.78-6.16V18c0 3.17-1.28 3.7-5.9 3.7a11.54 11.54 0 0 0-1-3.12h-4.12v1.21h-2.95v-8.46h8.74v7.15h1.43c.42 0 .57-.15.57-.55v-7.84h-5.74V1.56zm-8.22 14.39v-2h-2.8v2zm5-12h-2.72v.81h2.71zm-2.72 3.77h2.71v-.86h-2.71zm30.17 3.98a.52.52 0 0 1-.18 0 .65.65 0 0 1-.33-.11c-1.63.46-3.7 1.06-5.21 1.58v2.82l-3.34.26c.07-.68.09-1.28.11-1.8-1.36.7-2.24 1.65-2.24 2.24 0 .84 1.06 1.12 3.28 1.12a49.38 49.38 0 0 0 5.43-.26v3.06c-1.08.13-2.9.15-5.5.15-4.25 0-6.49-.9-6.49-3.87 0-1.67 2.16-3.74 5.17-5.28 0-.29-.22-.84-.77-.84-1.39 0-2.88.68-4.58 2.64-.51.57-1.28 1.45-2.24 2.4l-2.32-2.24a30 30 0 0 0 2.44-2.22A12.46 12.46 0 0 0 82 6.9h-3.93v-3c1.21.1 2.81.1 3.8.1h1c.18-.86.29-1.72.42-2.79l3.94.35a.66.66 0 0 1-.55.44c-.11.62-.26 1.23-.42 1.85a22.61 22.61 0 0 0 6.27-1.17l.53 3.12a34.12 34.12 0 0 1-7.68 1 12 12 0 0 1-.84 2 4.92 4.92 0 0 1 2.77-.92 2.84 2.84 0 0 1 2.71 2.44c1.63-.68 3.56-1.34 5.08-2zm25.08 3.96v2.73h-3.5v3.3h-3v-3.3h-3.76v-2.73h3.76v-1.47h-1.41a6.38 6.38 0 0 1-.84 1.43 14.44 14.44 0 0 0-1.91-1.5 9.35 9.35 0 0 0 1.22-4.12 7.44 7.44 0 0 0-1.39-2v10.74c0 2.33-.86 2.93-3.83 2.93a9.36 9.36 0 0 0-.88-2.68h1.78c.26 0 .33-.09.33-.35v-2.76h-3.67a13.41 13.41 0 0 1-1.74 5.85 11.32 11.32 0 0 0-2.2-1.41c1.5-2.27 1.61-5.54 1.61-8V8.8a16.42 16.42 0 0 0-1.63-1.34 16 16 0 0 0 3.04-6.67l3.19.86c-.07.2-.26.31-.57.29-.09.31-.18.59-.29.9h1.69l.4-.13 2 1.21a.73.73 0 0 1-.48.29c-.31.64-.75 1.47-1.23 2.29h2.4v1.26a4.07 4.07 0 0 0 2.6-3.28h-2.18V1.89h8.41l1.59.11v.79c-.2 6.29-.35 6.75-4.4 6.65a6.4 6.4 0 0 0-.7-2.55 12.7 12.7 0 0 0 1.34.09.63.63 0 0 0 .57-.24 5.41 5.41 0 0 0 .29-2.26h-2.07a6.42 6.42 0 0 1-3.41 5.28l2.33.51v-.88l3.67.2c0 .24-.2.37-.64.46v1.47h2.79v2.66h-2.79v1.47zm-15.93-9.17a13.94 13.94 0 0 0 .54-1.28h-1.2c-.2.44-.4.86-.62 1.28zm-1 5.79v1.3h.73v-1.3zm0-3.48V10h.7V8.8zm2.77 0V10h.73V8.8zm0 4.77h.73v-1.3h-.73zm7.66-3.15a.62.62 0 0 1-.44.15c0 .31-.11.64-.18.95h.62zm12.54-3.65a16.73 16.73 0 0 1 4.12 2l-1.85 2.66a16.1 16.1 0 0 0-4-2.29zm-1.08 12.61a64.52 64.52 0 0 0 3.94-7l2.44 2c-1.08 2.33-2.27 4.6-3.3 6.34a.68.68 0 0 1 .18.46.61.61 0 0 1-.13.4zM128.78.83a16.65 16.65 0 0 1 4 2.09L131 5.54a15.65 15.65 0 0 0-3.92-2.35zm17.89 12.89h-4.87a10.22 10.22 0 0 0 5.13 5.17 12.15 12.15 0 0 0-2.24 2.82 12.37 12.37 0 0 1-5.66-6.6 11.13 11.13 0 0 1-5.28 6.65 13.46 13.46 0 0 0-2.68-2.27 9.51 9.51 0 0 0 4.93-5.77h-3.7v-3h4.25c0-.73.07-1.47.07-2.2V7.28h-3.3v-3h3.3V.76l3.85.2c0 .26-.2.42-.66.48v2.85h5.3v6.45h1.56zm-6.87-6.44v3.45h2.2V7.28z"/><path class="cls-3" d="M13.72 20.58l5.96-8.79L13.72 3M7 20.58l5.96-8.79L7 3"/></g></g></svg>