<svg xmlns="http://www.w3.org/2000/svg" viewBox="0 0 299.12 34.09"><defs><style>.cls-1{fill:#f8ea21}</style></defs><title>txt_recruit02</title><g id="レイヤー_2" data-name="レイヤー 2"><path class="cls-1" d="M1 7.16a54.67 54.67 0 0 0 6.7-.47c.07-2.12.11-5.79.11-6l6.66.47a1.07 1.07 0 0 1-1 .79c-.18 1.66-.22 2.56-.36 4 .68.29 1.37.61 2.05.94a35 35 0 0 0-2.52 5.15 18.29 18.29 0 0 1 9.72-3.38c5.9 0 10.26 4 10.26 10.8 0 8.06-6 11.52-15 12.35A25.85 25.85 0 0 0 15.48 27C23.15 26.13 27 24.3 27 19.65c0-3.17-1.66-5.9-5.22-5.9a15.43 15.43 0 0 0-9.32 4v6.3c0 3.42 0 6.88.07 8.71H7.27V22.1a21.53 21.53 0 0 1-4.82 5.08L0 22.35c5-4.18 6.91-7.42 7.34-8.42l.11-2.27c-1.08.22-3.85.5-6.26.68zm59.48 2.92a44.66 44.66 0 0 1-9.29 1.66 121.54 121.54 0 0 1-6 21.31l-5.69-2a68.93 68.93 0 0 0 6-19h-5.58l-.11-5.18c1.15.07 3 .11 4.72.11h1.69c.25-2 .47-4.43.61-6.48l6.92.5a1.16 1.16 0 0 1-1 .9c-.14 1.19-.43 3.13-.65 4.46a35.64 35.64 0 0 0 7.38-1.73zM70 32.36c-1 .07-2.3.14-3.64.14a38.23 38.23 0 0 1-7.36-.61c-3.53-.76-5.15-3.1-5.11-5.72a8.54 8.54 0 0 1 2.3-5.36l4.68 1.66a4.21 4.21 0 0 0-1.55 2.77c0 1.62 1.55 1.94 6.23 1.94a45.37 45.37 0 0 0 4.57-.18zM56.59 13.82a46.61 46.61 0 0 1 12.74-1.73v5.22a44.48 44.48 0 0 0-11.59 1.19zm29.74-12.2c-.07.43-.4.76-1.08.86-.32 5.08-.68 13-.68 18.21 0 4.25 2.2 6.19 5.69 6.19 3.17 0 6.91-1.66 11-5.47a39.88 39.88 0 0 0 3.1 5c-4.61 4.32-9.21 6.19-14.15 6.19-8.64 0-11.63-4.64-11.63-11.84 0-5 .22-15.08.47-19.37zm43.99 8.46a44.66 44.66 0 0 1-9.32 1.66A121.54 121.54 0 0 1 115 33l-5.69-2a68.93 68.93 0 0 0 6-19h-5.58l-.11-5.18c1.15.07 3 .11 4.72.11h1.69c.25-2 .47-4.43.61-6.48l6.91.58a1.16 1.16 0 0 1-1 .9c-.14 1.19-.43 3.13-.65 4.46a35.64 35.64 0 0 0 7.38-1.73zm9.5 22.28c-1 .07-2.3.14-3.64.14a38.23 38.23 0 0 1-7.38-.61c-3.53-.76-5.15-3.1-5.11-5.72a8.54 8.54 0 0 1 2.3-5.36l4.68 1.66a4.21 4.21 0 0 0-1.55 2.77c0 1.62 1.55 1.94 6.23 1.94A45.37 45.37 0 0 0 140 27zm-13.39-18.54a46.61 46.61 0 0 1 12.74-1.73v5.22a44.48 44.48 0 0 0-11.63 1.19zm45.79-4.24a84.46 84.46 0 0 1-13.64 1.84 32 32 0 0 1-1.12 5.65 16.59 16.59 0 0 1 8.35-2.52c4.79 0 8.64 2.34 8.64 8.13 0 7.52-6.7 10.33-19.33 10.58a25.92 25.92 0 0 0-1.62-5c10.12-.25 15.33-1.8 15.33-5.47 0-2.3-1.29-3.38-4-3.38a11.48 11.48 0 0 0-9.21 4.9l-5.33-2.27c1-1.12 2.45-5.25 2.92-10.58h-7.42V6.19c1.73.11 5.29.11 7.85.11.11-1.76.14-4 .11-5.9l6.77.61a1.15 1.15 0 0 1-1 .9c-.07 1.4-.18 3-.29 4.25a71 71 0 0 0 12.24-2zm33.66 5.32a1.11 1.11 0 0 1-.36 0 1.87 1.87 0 0 1-.9-.25c-10.91 2.84-18.21 6.3-18.14 9.72 0 2.34 2.38 3.35 7 3.35a81 81 0 0 0 12.71-1l.5 5.54a123.71 123.71 0 0 1-13.32.72c-5.76 0-12.6-1.19-12.6-8.35 0-3.74 3.17-6.84 8.35-9.68-1.4-2.81-1.76-6.73-1.69-14.33l7.56.61c0 .54-.4.83-1.22.94v3.28a26.37 26.37 0 0 0 .65 7c2.88-1.26 6.16-2.48 9.68-3.71zM228.2 26a1 1 0 0 1-1.15.4 56.69 56.69 0 0 1-10.19 7.7 41.87 41.87 0 0 0-4.57-3.92 31.19 31.19 0 0 0 9.47-6.84zm17.8-8.36v5.11h-33v-5.11h7.42v-6.73h-6.12V5.83h6.12V0l6.55.36c0 .4-.32.65-1.08.79v4.68H233V0l6.62.36c0 .4-.36.65-1.12.79v4.68h6.55v5.08h-6.55v6.73zm-20.16-6.73v6.73H233v-6.73zm15.15 23a92.92 92.92 0 0 0-9.25-7.88l5-2.77a108 108 0 0 1 9.65 7.49zm20.95-31.17c0 .4-.36.68-1 .76A81 81 0 0 0 259 20.73a17.39 17.39 0 0 0 .11 2.52c.32-.72 1.69-3.46 2.12-4.54l2.41 4.14c-1 2-2.41 3.92-3 5.72a6.2 6.2 0 0 0-.29 1.73 5.39 5.39 0 0 0 .18 1.33l-5.47.79a44.39 44.39 0 0 1-1.69-13.1A131 131 0 0 1 255 1.84zm21 27.18c-1.33.07-2.74.11-4.1.11-4.71 0-13.25 0-13.25-6.91a11.51 11.51 0 0 1 3-7.27l5.29 1.69a6.69 6.69 0 0 0-2.48 4.75c0 1.94 1.66 2.45 6.44 2.45a41.56 41.56 0 0 0 5.33-.32zM266.54 6a131.12 131.12 0 0 0 15-1.33l.47 5.4a137.38 137.38 0 0 1-15.33 1.19zm32.58 22.94a5 5 0 1 1-5-5 5.05 5.05 0 0 1 5 5zm-1.8 0a3.24 3.24 0 1 0-3.24 3.24 3.23 3.23 0 0 0 3.24-3.24z" id="top3"/></g></svg>