<svg xmlns="http://www.w3.org/2000/svg" viewBox="0 0 204.44 22.9"><defs><style>.cls-1{fill:#ff003c}.cls-2{fill:#fff}.cls-3{fill:none;stroke:#fff;stroke-linecap:round;stroke-linejoin:round;stroke-width:2px}</style></defs><title>txt_menu_story</title><g id="レイヤー_2" data-name="レイヤー 2"><g id="main_hover"><path class="cls-1" d="M0 0h204.44v22.9H0z"/><path class="cls-2" d="M29 3.73a23.35 23.35 0 0 1 2.11 5.72l-3.19 1a23.66 23.66 0 0 0-2-5.77zm15.78.84a.71.71 0 0 1-.75.37c-2.24 8-5.9 12.19-12.74 15.4a15.48 15.48 0 0 0-2.29-2.6C35.38 15 38.88 11.19 40.59 3.2zm-8.9-1.94a37.6 37.6 0 0 1 .9 6.09l-3.41.46A35.87 35.87 0 0 0 32.5 3zm31.9 9.15h-6.9a11.25 11.25 0 0 1-6 9 25.36 25.36 0 0 0-2.77-2.16c3.45-1.85 5-3.87 5.37-6.84h-7.96V8.72h8.21V5.77c-1.8.31-4.11.62-6.27.77a18.16 18.16 0 0 0-.88-2.6c4.25-.4 10.23-1.43 13.27-2.68l2.29 2.55c-.13.11-.33.11-.7.11a34.94 34.94 0 0 1-4.69 1.25l1.08.07c0 .26-.22.48-.66.57v2.9h6.67zm24.27-5.63a.74.74 0 0 1-.48.35 23.39 23.39 0 0 1-5.13 8 17.11 17.11 0 0 0-2.84-2 15.06 15.06 0 0 0 3.3-4.4l-5 1 2.18 10.94-3.48.59L78.5 9.8l-5.21 1-.64-3.17 5.24-1-1.07-5.23 4.31-.33c0 .33-.29.53-.62.66L81.29 6l7.61-1.44.33-.18zm19.78-2.42a.9.9 0 0 1-.46.44 35 35 0 0 1-4 7.13 91.28 91.28 0 0 1 7 6.45l-3 2.64a64.41 64.41 0 0 0-6.21-6.45 38.48 38.48 0 0 1-7.46 6.42 19.6 19.6 0 0 0-2.49-2.57 27.15 27.15 0 0 0 11.54-12.13h-9.51V2.47h11.42l.55-.15zm19.69 10.05a54 54 0 0 0-6.52-3.17v9.95h-3.59V1.11l4.29.22c0 .26-.22.51-.7.59V8l.64-.88a65.79 65.79 0 0 1 7.72 3.37zm7.22-4.88h16.54v3.34h-15.67a1 1 0 0 1-.71.42zm23 4.66V2.65l4.09.22c0 .24-.22.42-.68.48v10.21zm13.42-11.9c0 .24-.22.42-.68.48V9c0 4.69-1.52 9.09-7.63 11.71a17.19 17.19 0 0 0-2.57-2.46C170 16 171 12.4 171 8.94v-7.5zm5.98 7.24h16.54v3.34H182a1 1 0 0 1-.71.42z"/><path class="cls-3" d="M12.72 20.24l5.96-8.79-5.96-8.79M6 20.24l5.96-8.79L6 2.66"/></g></g></svg>