<svg xmlns="http://www.w3.org/2000/svg" viewBox="0 0 176.66 22.9"><defs><style>.cls-1{fill:#ff003c}.cls-2{fill:#fff}.cls-3{fill:none;stroke:#fff;stroke-linecap:round;stroke-linejoin:round;stroke-width:2px}</style></defs><title>txt_menu_efforts</title><g id="レイヤー_2" data-name="レイヤー 2"><g id="main_hover"><path class="cls-1" d="M0 0h176.66v22.9H0z"/><path class="cls-2" d="M36.39 5.85a.77.77 0 0 1-.4.4 21.92 21.92 0 0 1-2.53 4.82c1.08.73 2.75 2 3.23 2.38l-1.87 2.62a25.4 25.4 0 0 0-1.76-2v7.59h-3.17v-6.48a17.73 17.73 0 0 1-2.24 1.69 12.75 12.75 0 0 0-1.5-3.06 15.41 15.41 0 0 0 6-6.12h-5.27V4.81h3v-4l3.83.2c0 .24-.22.4-.66.48v3.32h.77l.48-.11zm6.78 12.06h4.47v3.15H35v-3.15h4.82v-7.44H36v-3.1h3.89V1l4 .22c0 .24-.22.4-.68.48v5.67h3.92v3.1h-3.97zM71.54 4.37v13.82c0 3.1-1.39 3.52-5.72 3.52a11 11 0 0 0-1-3.15c.77.07 1.67.07 2.31.07 1.14 0 1.28 0 1.28-.48v-3.37l-2.46 1.89a35.07 35.07 0 0 0-3.5-4.09A11.14 11.14 0 0 1 58 17.29a13.21 13.21 0 0 0-1.65-1.87v6.29H53.1V4.37h7.31V.76l4 .2c0 .24-.2.42-.66.51v2.9zM56.32 7.5v7a7.87 7.87 0 0 0 4.07-7zm12.06 0h-4.69a18.08 18.08 0 0 1-.22 1.87 57.46 57.46 0 0 1 4.91 5zm21.22-.93a.78.78 0 0 1-.7.37c-1 7.86-3.12 11.44-7 11.44-2.66 0-4.44-2.09-4.44-6 0-5.79 4.67-9.77 10.19-9.77 6.18 0 9.59 3.52 9.59 8.52 0 5.15-2.51 7.9-8.16 9.42a15 15 0 0 0-2.08-2.8c5-1 6.73-3.37 6.73-6.54 0-3.52-2.53-5.48-6.07-5.48a8.74 8.74 0 0 0-1.32.11zm-4.16-.51a6.52 6.52 0 0 0-4.64 6.21c0 1.61.33 2.82 1.25 2.82 1.9 0 3.11-4.31 3.4-9.02zm35.14-2.63l1.89.59a1.94 1.94 0 0 1-.24.53 29.77 29.77 0 0 1-2.79 10.91 12 12 0 0 0 3.78 3.54 11.69 11.69 0 0 0-2.22 2.67 13.32 13.32 0 0 1-3.45-3.3 14.93 14.93 0 0 1-3.74 3.3 13.67 13.67 0 0 0-1.67-2.22v2.22H109V18c-2.11.42-4.14.81-5.59 1.06a.51.51 0 0 1-.42.4L101.94 16c.53 0 1.12-.13 1.76-.2V4.46h-1.63V1.51h11.71v2H120zM109 4.46h-2.29v1.7H109zM106.74 9v1.72H109V9zm0 6.4l2.29-.29v-1.56h-2.29zm5.39-10.94v14.35a11.31 11.31 0 0 0 3.59-3.5 34.16 34.16 0 0 1-2.51-8.12l2.86-.55a28.53 28.53 0 0 0 1.43 5.1 24.74 24.74 0 0 0 1.3-5.1h-5.85V4.46zm34.72 13.8h1.36v2.86h-13v-2.86l-1 .37a25.77 25.77 0 0 0-.95-3.43v6.47h-2.76v-6.82h-.07a19.1 19.1 0 0 1-1.17 5.24A16 16 0 0 0 127 19a18.75 18.75 0 0 0 .92-5.1l2.53.57V13c-.86 0-1.65.11-2.31.13a.48.48 0 0 1-.44.35l-.57-3.12h1.76c.26-.35.55-.7.81-1.08a20.27 20.27 0 0 0-2.57-3l1.47-2.22.37.35a27.52 27.52 0 0 0 1.5-3.67l3.2 1.26a.72.72 0 0 1-.66.26 32.19 32.19 0 0 1-2.18 4c.2.22.37.44.53.64.73-1.19 1.39-2.4 1.89-3.45l3 1.36c-.09.18-.33.26-.68.26a43.39 43.39 0 0 1-2.49 3.65l1.94-.9a17.86 17.86 0 0 1 2.09 4.6l-2.42 1.19a8.7 8.7 0 0 0-.22-.88l-1.17.09v1.69l2.16-.7a32.52 32.52 0 0 1 1.3 3.92l-1.5.53h1.85V1.8h9.75zm-13.36-7.94a14.22 14.22 0 0 0-.64-1.3c-.35.44-.7.9-1.06 1.32zm10.12-5.65h-3.43v2.5h3.43zm0 8V10h-3.43v2.62zm-3.43 2.86v2.75h3.43v-2.77zm31.38-8.14a.66.66 0 0 1-.68.44c-.24 1.06-.64 2.71-1 4 .92.42 2.07 1 3.06 1.47l-1.43 3.21c-.92-.53-1.78-1-2.62-1.45a12.69 12.69 0 0 1-4.33 6.16 17.35 17.35 0 0 0-2.77-1.85 10.89 10.89 0 0 0 4-5.7 20.72 20.72 0 0 0-3.61-1.12c-1.5 4.88-3 6.42-6 6.42-2.46 0-3.7-1.76-3.7-4.2 0-3.52 3.74-5.41 7.13-5.37a33.68 33.68 0 0 0 .84-4.4c-1.08.11-3.45.33-5.13.44a1 1 0 0 1-.59.35l-.33-3.45c2.64-.07 6.36-.33 7.26-.42a1.38 1.38 0 0 0 .62-.33L165 2.9a1.42 1.42 0 0 1-.59.46c-.31 1.72-.92 4.58-1.39 6.32a23.37 23.37 0 0 1 3.72 1 32.65 32.65 0 0 0 .86-4.16zM159 12.29c-2 0-3.45 1.08-3.45 2.53 0 .75.35 1.25.9 1.25 1.15.01 1.75-1.2 2.55-3.78z"/><path class="cls-3" d="M13.46 20.58l5.96-8.79L13.46 3M6.74 20.58l5.96-8.79L6.74 3"/></g></g></svg>