<svg xmlns="http://www.w3.org/2000/svg" viewBox="0 0 129.44 22.9"><defs><style>.cls-1{fill:#ff003c}.cls-2{fill:#fff}.cls-3{fill:none;stroke:#fff;stroke-linecap:round;stroke-linejoin:round;stroke-width:2px}</style></defs><title>txt_menu_training</title><g id="レイヤー_2" data-name="レイヤー 2"><g id="main_hover"><path class="cls-1" d="M0 0h129.44v22.9H0z"/><path class="cls-2" d="M47.69 7.7h-1.26a25.19 25.19 0 0 1-2.2 7.88A10.22 10.22 0 0 0 48 18.9a12.56 12.56 0 0 0-2.22 2.79 11.77 11.77 0 0 1-3.48-3.19 13 13 0 0 1-4.51 3.19 15.55 15.55 0 0 0-1.65-2.79 9.52 9.52 0 0 0 4.44-3.39 25.13 25.13 0 0 1-1.17-3.3 9.76 9.76 0 0 1-.64.92 24 24 0 0 0-1.83-1.8 25.29 25.29 0 0 1-3 3v.2l4.14-.29v2.51c-1.39.18-2.79.33-4.16.46v1.58c0 2.18-.64 2.9-4.44 2.9a10 10 0 0 0-.87-2.69h2c.31 0 .37-.07.37-.31v-1.16c-1.08.09-2 .2-2.88.26a.54.54 0 0 1-.44.37L26.7 15c1.17-.07 2.64-.13 4.25-.24v-1.63h.92c.26-.26.53-.55.79-.84h-1.15a20 20 0 0 1-3.1 2.16 19 19 0 0 0-2-2.33 15.89 15.89 0 0 0 2.31-1.41V9.9h1.1l.73-.66h-3.79V6.51h3.1V5.36h-2.11V2.7h2.11V.76l3.59.2c0 .22-.2.37-.64.44v1.3h1.87v1a19.25 19.25 0 0 0 1-2.4l3.34 1.1a.63.63 0 0 1-.66.29 24.73 24.73 0 0 1-1.94 3.81H38v1.61A31.52 31.52 0 0 0 39.61.74l3.72.73c-.07.22-.29.35-.62.35-.15 1-.33 2-.55 2.93h5.52zM32.81 5.36v1.15H33c.26-.37.53-.75.77-1.14zm2.14 4.54l.42-.13 1.34.81a10.86 10.86 0 0 0 .77-1.34h-2.93c-.18.22-.35.44-.55.66zm6.45-2.2a26.75 26.75 0 0 0 1 4 25.18 25.18 0 0 0 .79-4zm31.21-5.09v2.77h-3.87a27.17 27.17 0 0 1 3.78 3.42l-2.84 1.78a12.89 12.89 0 0 0-1.12-1.28c-5.06.26-10.21.48-13.73.59a.51.51 0 0 1-.44.37L53.21 7h2.9c.35-.48.68-1 1-1.56H52.5V2.61h8.36V.74l4 .22c0 .24-.2.4-.66.46v1.19zm-3.34 7.86v8.34c0 2.46-1.1 2.91-5.61 2.86a10.15 10.15 0 0 0-.95-2.51h2.78c.53 0 .53-.15.53-.7H59v3.19h-3.24V10.47zM66 13h-7v.57h7zm-7 3.32h7v-.62h-7zm6.6-11h-4c-.11.18-.33.24-.66.24-.31.4-.68.84-1.1 1.3l6.07-.09c-.4-.35-.79-.66-1.17-.95zm19.57 1.12v1.47h4.23v2.89h-4.23v1h4v5.41c0 2-.48 2.82-3.32 2.82a9.25 9.25 0 0 0-.64-2.46v4.07h-3v-7H81v5.28h-2.8v-8.11h3.94v-1h-4.73v-2.9h1.41c-.51-.26-1.06-.53-1.47-.7a24.41 24.41 0 0 0 1.3-6l3.42.79a.52.52 0 0 1-.57.29l-.2 1.23h.84V.74l3.67.2c0 .24-.2.37-.64.46v2.16h3.65v2.88zm-4.55 0c-.15.53-.33 1-.48 1.47h2V6.44zm5.65 8.21h-1.1v2.73h.88c.13 0 .22 0 .22-.24zm7.42-11c0 .22-.2.37-.62.44v11.97h-3V3.47zm.9-2.44l3.7.15c0 .24-.2.42-.64.48v16.24c0 2.79-.86 3.59-5.13 3.59a13.84 13.84 0 0 0-.95-3.19h2.53c.37 0 .48-.11.48-.46zm12.91 4.37v3.28c0 3.67-.35 9.33-2.42 12.81a12.71 12.71 0 0 0-2.62-1.76c1.85-3.12 2-7.79 2-11V2.75h7.75v-2l4 .22c0 .24-.2.4-.66.48v1.3h7.81v2.83h-6l3.39.15c0 .24-.2.4-.64.48V7h3.15v2.41h-3.15v3.17h-9.37V9.41H108V7h2.73V5.58zm12.78 7.63l2.09.92a.65.65 0 0 1-.31.33 10.84 10.84 0 0 1-3.28 3.83 32.39 32.39 0 0 0 4.82.7 12.14 12.14 0 0 0-1.87 2.75 22 22 0 0 1-6.43-1.63 30.52 30.52 0 0 1-7 1.63 11.14 11.14 0 0 0-1.3-2.65 30.44 30.44 0 0 0 5.19-.84 11.72 11.72 0 0 1-2-2l1.32-.46h-3.43v-2.48h11.71zM116.9 7V5.58h-5.79l3.26.15c0 .24-.22.4-.66.48V7zm-3.5 8.8a8.91 8.91 0 0 0 2 1.34 10.41 10.41 0 0 0 2-1.34zm3.5-5.5v-.89h-3.19v.86z"/><path class="cls-3" d="M13.72 20.58l5.96-8.79L13.72 3M7 20.58l5.96-8.79L7 3"/></g></g></svg>