<svg xmlns="http://www.w3.org/2000/svg" viewBox="0 0 238.5 22.96"><defs><style>.cls-1{fill:#ff003c}.cls-2{fill:#fff}.cls-3{fill:none;stroke:#fff;stroke-linecap:round;stroke-linejoin:round;stroke-width:2px}</style></defs><title>txt_menu_message</title><g id="レイヤー_2" data-name="レイヤー 2"><g id="main_hover"><path class="cls-1" d="M0 .06h238.5v22.9H0z"/><path class="cls-2" d="M35.27 13.14c-.07.22-.26.37-.66.42-.68 3-1.5 6-6.67 7.86A9.42 9.42 0 0 0 26 18.57c4.51-1.3 5-3.48 5.37-5.87zm5.28 4c0 .77.09.86.68.86h1.43c.57 0 .68-.37.77-2.84a9.61 9.61 0 0 0 2.9 1.25c-.31 3.61-1.14 4.6-3.37 4.6h-2.24c-2.77 0-3.41-1-3.41-3.85v-4.68h-11V9.37h8.29v-3.1h-3.34a15.7 15.7 0 0 1-1.56 2.84 17.25 17.25 0 0 0-2.86-1.41 18.09 18.09 0 0 0 2.86-7l3.7.81c-.09.22-.29.33-.62.33-.11.42-.24.9-.4 1.39h2.27V.48l3.94.2c0 .26-.22.42-.68.48v2h6.45v3.11h-6.45v3.1h8.27v3.1h-5.63zm31.08.55v2h-8.49v1.65H60v-1.63h-8.56v-2H60v-.48h-5.59v-5.3H60v-.48h-7.35V9.53h2.62a10.71 10.71 0 0 0-1-1.21 5 5 0 0 0 2.84-.84c-1.78.15-3.43.26-4.64.33a.42.42 0 0 1-.35.31l-.57-2c1.63 0 3.89-.09 6.25-.15V5.5h-4.96V3.81h4.91V3.3h-5.41V1.56h5.41V.46l3.52.18c0 .24-.2.37-.64.46v4.44a4.38 4.38 0 0 1-2.29 4H60V8.38l2.46.13v-8l3.61.2c0 .24-.2.37-.64.44v.42h5.3V3.3h-5.3v.51h4.91V5.5h-4.91V6h5.79v1.75h-5.79V9h-2.29v.46h7.44v1.91h-7.44v.48h5.63v5.28h-5.63v.48zM57.4 13.38v.51H60v-.51zm0 2.38H60v-.51h-2.6zm8.23-2.38h-2.49v.51h2.49zm0 2.38v-.51h-2.49v.51zM86.24 5.57a.77.77 0 0 1-.4.4 21.94 21.94 0 0 1-2.53 4.82c1.08.73 2.75 2 3.23 2.38l-1.87 2.62a25.52 25.52 0 0 0-1.76-2v7.59h-3.16V14.9a17.8 17.8 0 0 1-2.24 1.69A12.81 12.81 0 0 0 76 13.53a15.41 15.41 0 0 0 6-6.12h-5.26V4.53h3v-4l3.83.2c0 .24-.22.4-.66.48v3.32h.77l.48-.11zM93 17.63h4.47v3.15H84.9v-3.15h4.82v-7.44h-3.9V7.08h3.89V.73l4 .22c0 .24-.22.4-.68.48v5.65h3.92v3.1H93zm26.9-.16h-2.73a95.4 95.4 0 0 1 5.13 1.72l-2.84 2.25a58.7 58.7 0 0 0-7.2-2.53l2-1.43h-5.52l1.87 1.32a1 1 0 0 1-.44.13 26.31 26.31 0 0 1-6.49 2.46 24.76 24.76 0 0 0-2.44-2.29 26.67 26.67 0 0 0 5.1-1.63h-2.82V7.5h16.38zM118.58 1.1V7h-13.77V1.1zm-11.84 8.54v.57h9.81v-.57zm0 2.55v.57h9.81v-.57zm0 2.55v.59h9.81v-.59zm8.43-10.25v-.95H108v.95zm15.33 1.03c1.65.7 3.48 1.58 5.24 2.53a47.39 47.39 0 0 0 3.54-7l4.16 1.74c-.11.24-.44.37-.9.37a65.51 65.51 0 0 1-3.72 6.65 34.81 34.81 0 0 1 3.92 2.77l-2.24 3.24a31.18 31.18 0 0 0-3.76-3 34 34 0 0 1-8.21 7.85 16.1 16.1 0 0 0-2.82-2.44 30 30 0 0 0 8.07-7.23c-1.72-1-3.5-1.94-5.17-2.71zM151.23 7a26.43 26.43 0 0 1 1.52 4.62l-2.55.73a25.22 25.22 0 0 0-1.45-4.64zm12.65.68a.57.57 0 0 1-.59.31c-1.83 6.51-5.35 10.3-10.19 12.28a11.35 11.35 0 0 0-1.83-2.09c4.44-1.61 7.9-5.06 9.31-11.57zm-7.44-1.54a26.48 26.48 0 0 1 1.08 4.77l-2.71.57a28.34 28.34 0 0 0-1.08-4.82zm31.11.22a.78.78 0 0 1-.48.42A33.14 33.14 0 0 1 183 14a19.68 19.68 0 0 0-3-1.52A12.38 12.38 0 0 0 182.29 9l-5 1.25v4.58c0 1.56.44 2.13 2 2.13h3.41a25.53 25.53 0 0 0 3.39-.33c0 1 .07 2.35.13 3.26a29 29 0 0 1-3.45.2h-3.47c-3.79 0-5.41-1.67-5.41-5.13v-3.8l-4.53 1.14-.81-3.12 5.35-1.28V1.72l4.14.2c0 .31-.29.48-.68.57v4.57l7-1.74.31-.26zM192.86 9h16.54v3.3h-15.67a1 1 0 0 1-.71.42zm22.81-1.74a29.42 29.42 0 0 1 5.5 2.07l-1.45 2.88a32.2 32.2 0 0 0-5.5-2.22zm.29 10c6.56-1.94 11.49-5.41 14.52-11.9a30 30 0 0 0 2.93 2.2A24.56 24.56 0 0 1 218.77 20a.6.6 0 0 1-.37.64zm2.46-15.4A35.45 35.45 0 0 1 224 4l-1.65 2.82a30 30 0 0 0-5.43-2.4zm9.88-.7a15.77 15.77 0 0 1 2.46 3l-1.56 1.19a20.44 20.44 0 0 0-2.38-3.06zM231.77 0a19.87 19.87 0 0 1 2.49 2.95l-1.56 1.16a20.31 20.31 0 0 0-2.38-3z"/><path class="cls-3" d="M12.72 20.3l5.96-8.79-5.96-8.79M6 20.3l5.96-8.79L6 2.72"/></g></g></svg>