<svg xmlns="http://www.w3.org/2000/svg" viewBox="0 0 129.44 22.9"><defs><style>.cls-1{fill:#ff003c}.cls-2{fill:#fff}.cls-3{fill:none;stroke:#fff;stroke-linecap:round;stroke-linejoin:round;stroke-width:2px}</style></defs><title>txt_menu_information</title><g id="レイヤー_2" data-name="レイヤー 2"><g id="レイヤー_1-2" data-name="レイヤー 1"><g id="レイヤー_2-2" data-name="レイヤー 2"><g id="main_hover" data-name="main hover"><path class="cls-1" d="M0 0h129.44v22.9H0z"/><path class="cls-2" d="M32.6 10.23V8.58a26.64 26.64 0 0 1-3.6 2.06A13.16 13.16 0 0 0 27.1 8 21.08 21.08 0 0 0 36 .79l4.22.2a.7.7 0 0 1-.64.48 19.25 19.25 0 0 0 8.85 6 16.15 16.15 0 0 0-2.07 2.95 26 26 0 0 1-3.54-2v1.83zm14.32 4.29h-4.55A27.67 27.67 0 0 1 47 19.86l-3 1.8c-.22-.42-.53-.9-.88-1.43-4.77.35-9.64.64-12.92.79a.54.54 0 0 1-.46.37l-1.1-3.45h3.26a30.47 30.47 0 0 0 1.39-3.39h-4.7v-3h18.33zM41.27 7.3a18.45 18.45 0 0 1-3.57-3.43 18.92 18.92 0 0 1-3.36 3.43zm-4.53 7.22l.81.26c-.09.22-.35.31-.73.31a26.58 26.58 0 0 1-1.36 2.73c1.8 0 3.72-.09 5.63-.15a43.59 43.59 0 0 0-1.87-1.94l2.33-1.21zm25.65-8.67a.77.77 0 0 1-.4.4 21.9 21.9 0 0 1-2.53 4.82c1.08.73 2.75 2 3.23 2.38l-1.87 2.62a25.29 25.29 0 0 0-1.76-2v7.59h-3.17v-6.48a17.66 17.66 0 0 1-2.24 1.69 12.73 12.73 0 0 0-1.5-3.06 15.41 15.41 0 0 0 6-6.12h-5.27V4.81h3v-4l3.83.2q0 .36-.66.48v3.32h.77l.48-.11zm6.78 12.06h4.47v3.15H61v-3.15h4.82v-7.44H62v-3.1h3.89V1l4 .22c0 .24-.22.4-.68.48v5.67h3.92v3.1h-4zM93.63 7.89h5.1v2.49H85.07V8l-.73.42a14.16 14.16 0 0 0-.75-1.61v14.86h-3.12V9.92a6.76 6.76 0 0 1-.79 1.76l-2.18-1.32a9.82 9.82 0 0 0 1.08-5.06l1.89.26V.76l3.76.2c0 .24-.2.4-.64.46v3.26l1.1-.57a25 25 0 0 1 1.83 3.1l-1.21.68h4.88v-.57h-3.43v-2.2h3.43v-.59h-4.44V2.22h4.44V.76l4.14.24c0 .26-.22.42-.7.48v.75H98v2.3h-4.37v.59h3.43v2.2h-3.43zM97.21 11v7.85c0 2.35-1 2.86-4.55 2.86a10.94 10.94 0 0 0-.86-2.6h1.87c.26 0 .33-.11.33-.54h-4.31v3h-3.1V11zM94 13.33h-4.31v.55H94zm-4.36 3.15H94V16h-4.31zM109.38 5.1v1.23h3.52V9h-2.66l2.24.68c-.07.18-.26.24-.59.24-.29.51-.73 1.21-1.14 1.8h1.8v2.66h-3.17v1.25h2.82v2.67h-2.82v3.37h-2.95V18.3h-2.95v-2.66h2.95v-1.26h-3.19v-2.66h1.47a10.78 10.78 0 0 0-.7-2.27l1.58-.45h-2.9V6.33h3.74V5.1h-2.71V2.48h2.71V.76L110 1c0 .22-.2.37-.64.44v1H112V5.1zm-.07 6.62l-.62-.26a17.24 17.24 0 0 0 .86-2.46h-3.25a11.52 11.52 0 0 1 .81 2.46l-.86.26zm12-2l1.87.55a1.48 1.48 0 0 1-.22.46 21.34 21.34 0 0 1-1.72 6.71 8.37 8.37 0 0 0 2.44 1.56 11.68 11.68 0 0 0-2.07 2.66 8.39 8.39 0 0 1-2-1.56 10.72 10.72 0 0 1-1.52 1.47 9.89 9.89 0 0 0-1.87-2v2h-2.95v-20h9.55v4.76c0 2.53-1 2.93-4.58 2.93a11.14 11.14 0 0 0-.81-2.73h2c.22 0 .4-.07.4-.31v-1.8h-3.65v5.41h4.58zm-2.86 3a12.59 12.59 0 0 0 .7 1.78 15.15 15.15 0 0 0 .48-2.09h-3.45v.81zm-2.27 6.58a8.2 8.2 0 0 0 1.54-1.72 19.76 19.76 0 0 1-1.54-3.87z"/><path class="cls-3" d="M14.16 20.58l5.96-8.79L14.16 3M7.45 20.58l5.95-8.79L7.45 3"/></g></g></g></g></svg>