<svg xmlns="http://www.w3.org/2000/svg" viewBox="0 0 102.22 22.9"><defs><style>.cls-1{fill:#ff003c}.cls-2{fill:#fff}.cls-3{fill:none;stroke:#fff;stroke-linecap:round;stroke-linejoin:round;stroke-width:2px}</style></defs><title>txt_menu_crosstalk</title><g id="レイヤー_2" data-name="レイヤー 2"><g id="main_hover"><path class="cls-1" d="M0 0h102.22v22.9H0z"/><path class="cls-2" d="M39.8 16.67v1.45h6.76v2.73H30.12v-2.73h6.6v-1.45h-5.13v-2.73h5.13v-2.18l-1.17 1.45a15.49 15.49 0 0 0-1.41-1.63 6.31 6.31 0 0 1-1.83 1.91 11.92 11.92 0 0 0-1.89-1.56c-.2 3.23-.75 7-2.16 9.5a11.93 11.93 0 0 0-2.73-1.78c1.74-3.17 1.87-7.88 1.87-11.13V2.58h7.88V.43l4 .22c0 .24-.2.4-.66.48v1.45h7.81v2.95H30.54v3c0 .9 0 1.91-.09 3 1.58-1.06 2.2-3 2.38-5.28l3.32.4c0 .2-.22.33-.53.37a13.73 13.73 0 0 1-.37 2c.51.46 1.06 1 1.47 1.41V6l3.72.2c0 .24-.2.4-.64.46v4.2a8 8 0 0 0 1.89-4.64l3.23.51c0 .2-.22.33-.53.35A12.83 12.83 0 0 1 43.94 9c1 .81 2.18 1.72 2.82 2.33l-1.86 2.21c-.48-.55-1.32-1.28-2.16-2a7 7 0 0 1-1.8 1.89 14.38 14.38 0 0 0-1.14-1.08v1.61h5.57v2.73zM59.6 5.33v1.24h-8.52V4.08h8.52v1.06a7.89 7.89 0 0 0 1.47-3.5l2.6.51A8.56 8.56 0 0 1 62 6.32zm-.66 8v6.87h-4.2v.8h-2.67v-7.64zm0-6.14V9.6h-6.8V7.23zm-6.75 5.41v-2.34h6.75v2.38zm6.66-11.53v2.37h-6.64V1.07zm-2.62 14.78h-1.5v1.87h1.5zm2.73-.7a8.16 8.16 0 0 0 1.85-3.89l2.77.55a9.77 9.77 0 0 1-2 4.64zm8.41-1.83a3.79 3.79 0 0 0 .13 1 22.23 22.23 0 0 0 1.36-3.21l3.39 1.23c-.09.2-.33.26-.66.26a22.86 22.86 0 0 1-2 3.32l-1.8-.77a7.27 7.27 0 0 0 4.31 3.52 27 27 0 0 0-1.85 2.73 8.16 8.16 0 0 1-4.53-4.49 9 9 0 0 1-4.93 4.49A13.63 13.63 0 0 0 59 18.76c3.74-1.34 5-3.83 5-5.43V9.8l4 .15c0 .26-.26.44-.7.53zM68 .69q0 .36-.59.46a24.83 24.83 0 0 1-.55 4.12 41 41 0 0 1 5.08 3.26l-2.11 2.4a34.17 34.17 0 0 0-4.14-3 8.78 8.78 0 0 1-4.58 3.17 8.11 8.11 0 0 0-1.76-2.51c4.62-1.45 4.82-4 5-8.16zm4.14 2a.7.7 0 0 1-.66.24 25.93 25.93 0 0 1-1.83 3.15l-2.31-1a20.71 20.71 0 0 0 1.46-3.6zm9.61 7.2V8.24a26.63 26.63 0 0 1-3.63 2.07 13.17 13.17 0 0 0-1.87-2.64A21.08 21.08 0 0 0 85.14.45l4.22.2a.7.7 0 0 1-.64.48 19.25 19.25 0 0 0 8.84 6A16.15 16.15 0 0 0 95.5 10a26 26 0 0 1-3.54-2v1.89zm14.32 4.29h-4.55a27.64 27.64 0 0 1 4.64 5.35l-3 1.8c-.22-.42-.53-.9-.88-1.43-4.78.35-9.64.64-12.92.79a.54.54 0 0 1-.46.37l-1.1-3.45h3.26a30.46 30.46 0 0 0 1.39-3.39h-4.7v-3h18.33zM90.42 7a18.45 18.45 0 0 1-3.56-3.43A18.86 18.86 0 0 1 83.49 7zm-4.53 7.22l.81.26c-.09.22-.35.31-.73.31a26.19 26.19 0 0 1-1.36 2.73c1.8 0 3.72-.09 5.63-.15a43.59 43.59 0 0 0-1.87-1.94l2.33-1.21z"/><path class="cls-3" d="M12.72 20.24l5.96-8.79-5.96-8.79M6 20.24l5.96-8.79L6 2.66"/></g></g></svg>