<svg xmlns="http://www.w3.org/2000/svg" viewBox="0 0 579.03 34.34"><defs><style>.cls-1{fill:#f8ea21}</style></defs><title>txt_recruit01</title><g id="レイヤー_2" data-name="レイヤー 2"><path class="cls-1" d="M29.48 9a2.09 2.09 0 0 1-.9.76c-4.21 11.76-9.72 18.71-19.33 23.53a20.44 20.44 0 0 0-4.1-4.21c8.78-4 13.75-9.93 16.31-17.31H12a38.5 38.5 0 0 1-7.49 8A28.49 28.49 0 0 0 0 16.16 34.83 34.83 0 0 0 11.2 1.08L18 2.59a1.3 1.3 0 0 1-1.22.72c-.51 1.15-1.19 2.27-1.78 3.35h9.11l.79-.36zM45 6.77a1 1 0 0 1-1 .86c-.14 10.62-1.22 18.75-5.87 25.56-1.26-.83-3.38-2.05-4.93-2.84 4.54-5.47 5.18-15 5.11-24zm9.21 17.75C58.5 22 61 17.28 62.38 12.06a32.92 32.92 0 0 0 4.93 3C64.72 22.57 60.62 27.79 53 31.68a3 3 0 0 1-.94 1L48 27.9l.65-.86V1.87l6.7.32c-.07.43-.36.83-1.12 1zm49.93-16.39a1.32 1.32 0 0 1-.86.68 65.72 65.72 0 0 1-12.71 13.07 60.08 60.08 0 0 1 5.9 5.25l-4.86 4.25a66.37 66.37 0 0 0-15.22-12.45l3.82-4a67.33 67.33 0 0 1 6 3.78 50.43 50.43 0 0 0 8.24-8.1H72.76V5.47h26.13l.72-.4zM119.73 3c0 .4-.36.68-1 .76A81 81 0 0 0 116.78 21a17.39 17.39 0 0 0 .11 2.52c.32-.72 1.69-3.46 2.12-4.54l2.41 4.14c-1 2-2.41 3.92-3 5.72a6.2 6.2 0 0 0-.29 1.73 5.39 5.39 0 0 0 .18 1.33l-5.47.79a44.39 44.39 0 0 1-1.69-13.1 131 131 0 0 1 1.58-17.49zm21 27.18c-1.33.07-2.74.11-4.1.11-4.71 0-13.25 0-13.25-6.91a11.51 11.51 0 0 1 3-7.27l5.29 1.69a6.69 6.69 0 0 0-2.48 4.75c0 1.94 1.66 2.45 6.44 2.45a41.56 41.56 0 0 0 5.33-.32zM124.34 6.3a131.12 131.12 0 0 0 15-1.33l.47 5.4a137.38 137.38 0 0 1-15.33 1.19zm54.43 18.18h-8.86A33.09 33.09 0 0 0 181 29.41a23.57 23.57 0 0 0-3.85 4.86A32 32 0 0 1 166.46 28v6.19h-5.29V28a32.32 32.32 0 0 1-10.66 6.33 24.79 24.79 0 0 0-3.6-4.46A32.47 32.47 0 0 0 158 24.48h-8.71V20h4.18v-1.71h-5.62v-4.47h5.62v-1.69H150V7.7h11.2V6.44c-3.53.22-7.13.36-10.51.4a16.79 16.79 0 0 0-1.19-4.43c8.89-.22 18.75-1 25.13-2.34l3.49 4.43a1.56 1.56 0 0 1-.65.14 1.32 1.32 0 0 1-.5-.07A102.86 102.86 0 0 1 166.46 6v1.7H178v4.43h-3.78v1.69h5.87v4.46h-5.87V20h4.54zm-20.23-12.35v1.69h2.63v-1.69zm0 6.16V20h2.63v-1.71zm10.58-6.16h-2.66v1.69h2.66zm0 7.92v-1.76h-2.66V20zM195.37 8.6a1 1 0 0 1-.94.58c-.5 4.86-.76 6.95-1.48 8a22.85 22.85 0 0 1 11-3.28c5.18 0 9.29 2.92 9.29 8.46 0 7-5.08 10.55-19.69 11.09a29.11 29.11 0 0 0-2-5c11.74-.47 15.77-2.09 15.77-6 0-2.12-1.62-3.67-4.36-3.67s-8.53 1.19-11.23 5.33l-5-2.16c.79-.54 2.12-7.78 2.2-14.15zM194 .72a60.17 60.17 0 0 1 13.82 2.66l-1.76 5.36c-3.56-1.44-9.9-2.56-13.68-3zm41 .54a1.35 1.35 0 0 1-1.08.83c-.18 1.12-.54 2.84-.72 3.71a36 36 0 0 0 8-1.58l.65 5.15a68.37 68.37 0 0 1-9.65 1.48 65.57 65.57 0 0 1-6.62 17l-5.47-1.87a45.34 45.34 0 0 0 6.26-15h-5.76V6h6.62a50.68 50.68 0 0 0 .65-5.29zm9 15.84c0 1.84.07 3.92.25 5.79a46.61 46.61 0 0 1 6.66 3.42l-2.52 5.11a38 38 0 0 0-4.18-2.77c0 .94-.61 5-7.52 5-3 0-7.31-1.48-7.31-6.12.07-3.74 3.67-6.08 7.34-6.08.72 0 1.44 0 2.2.11-.07-1-.07-2.59-.07-3.89zm-4.79 9.21a7.64 7.64 0 0 0-2.63-.47c-1.55 0-2.56.79-2.59 1.73s1 1.73 2.7 1.73c1.51 0 2.52-.86 2.52-2.09zM250.41 15A68.78 68.78 0 0 0 238 16.38l-.72-4.72a59.53 59.53 0 0 1 12.85-1.73zm24.74 19a103.91 103.91 0 0 0-13.71-12.42c-2.34-1.8-2.77-2.81-2.77-4.79a4.48 4.48 0 0 1 1.58-3.6C264 9.65 270.58 3 273 .4l6.12 3.92a1.62 1.62 0 0 1-1.44.47c-3.17 2.84-8 7.05-10.94 9.79-.79.76-1.66 1.48-1.66 2s1 1.26 2.3 2.12a112 112 0 0 1 13.39 11zm25.7-32.74a1.35 1.35 0 0 1-1.08.83c-.18 1.12-.54 2.84-.72 3.71a36 36 0 0 0 8-1.58l.65 5.15a68.37 68.37 0 0 1-9.65 1.48 65.55 65.55 0 0 1-6.62 17L286 25.92a45.34 45.34 0 0 0 6.26-15h-5.76V6h6.62a50.68 50.68 0 0 0 .65-5.29zm9 15.84c0 1.84.07 3.92.25 5.79a46.61 46.61 0 0 1 6.66 3.42l-2.52 5.11a38 38 0 0 0-4.18-2.77c0 .94-.61 5-7.52 5-3 0-7.31-1.48-7.31-6.12.07-3.74 3.67-6.08 7.34-6.08.72 0 1.44 0 2.2.11-.07-1-.07-2.59-.07-3.89zm-4.79 9.21a7.64 7.64 0 0 0-2.63-.47c-1.55 0-2.56.79-2.59 1.73s1 1.73 2.7 1.73c1.51 0 2.52-.86 2.52-2.09zM316.29 15a68.78 68.78 0 0 0-12.46 1.33l-.72-4.72A59.53 59.53 0 0 1 316 9.93zm6.27-1.14c1-.18 2.09-.4 3.78-.86a55.43 55.43 0 0 1 12.78-2.23c5 0 9.75 2.63 9.75 8.75 0 8.39-7.2 11.27-18.14 12.09a30.66 30.66 0 0 0-1.58-4.75c8.85-.54 14.22-2.63 14.22-6.95 0-3.2-2.23-4.54-5-4.54-.65 0-4 0-10.94 2.48-.65.25-1.48.58-2.2.83a1.62 1.62 0 0 1-.94.76zm32.87-9.58c1.12 0 3 0 3.92-.11C364 3.89 378.21 3 385 2.66l.11 5.87c-3.46-.07-5.11.25-8 2.38-3.28 2.34-8 6.91-8 10.76 0 3.67 3.67 5.72 11.05 6.41l-2.7 5.47c-10.26-1.12-14.4-5.69-14.4-11.81 0-4.07 3.6-9.54 8.42-13.14-4.28.25-12 1-14.58 1.33-.07.29-.58.54-.94.61zm54.65 17.57a59.82 59.82 0 0 1-7.06.4c0 .58-.07 1-.07 1.62 0 3.78 2.74 4.14 5.15 4.14a14.43 14.43 0 0 0 4.39-.65 2.83 2.83 0 0 0 1.91-3 9.58 9.58 0 0 0-2.4-5.68 50.07 50.07 0 0 0 5.09-1.68c2.12 3.13 3.17 6 3.17 8.35 0 7.74-10 7.74-12.35 7.74-9 0-10.29-4.71-10.29-9.65V22c-2.41-.22-7.34-.68-7.34-5 0-1.62.79-3.42 2.88-5.18l4.21 1.69c-1.26.79-2.09 1.8-2.09 2.52 0 1 1.44 1.08 2.7 1.19.18-1.76.32-3.64.54-5.69a22.18 22.18 0 0 1-6.69-1.53l1.08-5a20.86 20.86 0 0 0 6.19 1.62c.22-1.87.47-3.85.65-5.62l7.13.83c0 .47-.54.79-1.33.94-.29 1.15-.58 2.7-.83 4.28 1.55 0 4.17 0 6-.11l-.29 5c-.83 0-2 .07-3.17.07h-3.24c-.25 1.91-.43 3.71-.61 5.47a50.9 50.9 0 0 0 6.7-.54zm19.04.86a75.23 75.23 0 0 1 7.59 7.52l-4.46 4a86.11 86.11 0 0 0-7.2-8zm42.3-12.27a39.1 39.1 0 0 1-5.83 1.12c0 1.4-.07 2.74-.07 4a26.12 26.12 0 0 1 6.3-1c5.79 0 10.65 2.84 10.65 9 0 5.44-3 9.29-9.43 9.29a8.59 8.59 0 0 1-6.55-3.06 33.42 33.42 0 0 0 2.66-4.21 5.34 5.34 0 0 0 4 2.2c2.48 0 3.82-1.73 3.82-4.21s-1.91-4.32-5.26-4.32a23.44 23.44 0 0 0-6.16 1V27c0 3.35-2.16 6.44-7 6.44-3 0-7-1.62-7-6.41 0-3 2.38-6.7 8.78-9.54V12c-2.27.11-4.82.14-7.63.14l-.11-5.22c2.88 0 5.44 0 7.74-.11V1l6.66.14A1 1 0 0 1 466 2c-.11 1.4-.18 2.84-.25 4.32a26.46 26.46 0 0 0 5-1.26zm-11.12 12c-1.62 1-3.82 2.48-3.82 4.46a1.69 1.69 0 0 0 1.84 1.91 1.81 1.81 0 0 0 2-2.09c.01-.84.01-2.57-.02-4.3zm20.19-8.89a27.43 27.43 0 0 0-8.06-4.61l2.66-4.5a25.92 25.92 0 0 1 8.42 4.43zm41.87-1.42h-5.29a22.61 22.61 0 0 1-5.15 5.51A58.16 58.16 0 0 0 524 19.8a24.74 24.74 0 0 0-3.35 5.08c-1-.14-2-.29-3-.47v9.79h-5.4v-1h-10.62v1.1h-5.11v-9.72c-1.44.36-2.92.68-4.39.94a19.79 19.79 0 0 0-2.45-4.64A54.17 54.17 0 0 0 501.45 18c-.79-.61-1.55-1.22-2.3-1.91-1.12.65-2.34 1.26-3.67 1.87a15.52 15.52 0 0 0-3.43-3.96 26.42 26.42 0 0 0 4.28-1.87h-4.9V3.49H504V0l6.48.36c0 .4-.32.65-1.08.76v2.37h12.92zm-25.81-3.92V12a17.72 17.72 0 0 0 4.79-3.82zM501.63 29h10.62v-1.86h-10.62zm9.75-6.08a41.38 41.38 0 0 1-4.86-1.92 41.1 41.1 0 0 1-4.43 1.91zm-8.17-9.72l-.14.11a20.45 20.45 0 0 0 3.46 2.23 23.68 23.68 0 0 0 3.13-2.34zM517 10.62V8.21h-8.64c-.11.4-.47.61-1 .61l-.4.5h6.41l.83-.22zm21.63 1.55v1.19c1 1.33 3.53 5.29 4.1 6.19l-2.63 3.71c-.36-.94-.9-2.16-1.48-3.46v14.47h-4.71V22.5a25.68 25.68 0 0 1-2.66 5.5 26.24 26.24 0 0 0-2.25-4.6 33 33 0 0 0 4.54-11.23h-3.64V7.34h4V.07l5.76.32c0 .36-.32.58-1 .72v6.23h3.31v4.82zm16.67 7.45a23.74 23.74 0 0 0 1.08 2.38 27.71 27.71 0 0 0 3-3.31l4.34 3.31a.88.88 0 0 1-.72.25 1.74 1.74 0 0 1-.43 0 35.42 35.42 0 0 1-4 3 14.47 14.47 0 0 0 5.43 3.83 20.22 20.22 0 0 0-3.28 4.25A16 16 0 0 1 555.3 28v1.3c0 3.85-1.19 5-7 5a16 16 0 0 0-1.08-4c-1.3.86-2.52 1.62-3.49 2.2a.85.85 0 0 1-.43.83l-2.48-4.82c2-.83 5.11-2.38 8.13-3.85l1.15 3.71c-.68.5-1.4 1-2.12 1.44h1.73c.29 0 .58-.18.58-.58V18.5h-8v-4.21h8v-1h-6.12v-4h6.12v-1h-6.91V4.14h2.77a16.5 16.5 0 0 0-1.26-2.66L549 .11A17.26 17.26 0 0 1 551 4l-.4.14h4.28l-.22-.07A26.32 26.32 0 0 0 556.31 0l5.54 1.69c-.14.29-.5.43-1 .43-.32.58-.79 1.33-1.26 2h3.1v4.23h-7.39v1h6.52v4h-6.52v1h8.1v4.15h-8.1zm-9.21-.83a25.87 25.87 0 0 1 3.52 4.21l-3.74 2.59a25.55 25.55 0 0 0-3.31-4.5zM579 29.23a5 5 0 1 1-5-5 5.05 5.05 0 0 1 5 5zm-1.8 0a3.24 3.24 0 1 0-3.2 3.24 3.23 3.23 0 0 0 3.23-3.24z" id="top2"/></g></svg>